<svg width="164" height="380" viewBox="0 0 164 380" fill="none" xmlns="http://www.w3.org/2000/svg">
<path d="M150.596 196.319C150.596 196.319 146.14 204.326 145.165 207.598C144.191 210.847 140.849 213.284 142.427 214.444C144.005 215.605 148.206 210.592 148.206 210.592C148.206 210.592 149.459 217.392 149.528 219.527C149.598 221.662 150.689 225.468 152.267 225.561C153.845 225.654 152.801 215.349 152.801 215.349C152.801 215.349 154.541 223.913 155.98 224.308C157.419 224.679 156.816 213.446 156.816 213.446C156.816 213.446 158.208 222.683 158.951 223.31C159.694 223.936 160.529 223.008 160.831 219.62C161.132 216.231 160.552 212.681 160.552 212.681C160.552 212.681 162.014 219.086 162.479 219.805C162.919 220.502 164.057 221.175 163.964 216.092C163.871 211.033 161.875 200.102 158.672 195.043L150.596 196.319Z" fill="#FEC1AD"/>
<path d="M131.914 345.198C131.914 345.198 131.658 363.741 131.798 363.996C131.937 364.252 130.452 366.572 130.452 366.572L124.603 367.617L119.265 365.157C119.265 365.157 119.73 347.913 119.173 345.198C118.616 342.506 131.914 345.198 131.914 345.198Z" fill="#FEC1AD"/>
<path d="M119.265 365.18C119.265 365.18 125.996 367.547 131.774 363.648C131.774 363.648 154.216 372.049 153.52 378.455C153.52 378.455 154.472 380.358 144.748 379.94C135.024 379.522 119.915 379.105 119.497 378.873C119.08 378.64 117.2 379.685 119.265 365.18Z" fill="#060633"/>
<path d="M44.5124 335.799C44.5124 335.799 37.0859 352.787 37.1091 353.089C37.1323 353.39 34.8579 354.945 34.8579 354.945L29.056 353.646L25.0874 349.306C25.0874 349.306 32.189 333.594 32.746 330.879C33.303 328.163 44.5124 335.799 44.5124 335.799Z" fill="#FEC1AD"/>
<path d="M25.1106 349.306C25.1106 349.306 30.4021 354.086 37.2252 352.717C37.2252 352.717 54.6543 369.172 51.5445 374.788C51.5445 374.788 51.6837 376.923 42.8879 372.769C34.0921 368.615 20.3298 362.372 20.0281 362C19.7496 361.652 17.5913 361.861 25.1106 349.306Z" fill="#060633"/>
<path d="M54.7706 168.191L25.134 344.014L41.3564 351.185L100.003 217.461L118.314 363.648L134.235 362.14L145.699 167.541L121.308 148.905L54.7706 168.191Z" fill="#060633"/>
<path d="M116.225 27.6901C116.225 27.6901 117.502 25.3229 118.732 26.1352C121.911 28.1775 119.219 31.4034 117.293 32.2389L116.225 27.6901Z" fill="#FEC1AD"/>
<path d="M116.132 19.4281C116.109 19.196 116.086 18.9639 116.063 18.7318C115.111 8.31148 105.573 0.768906 95.0826 2.41667C86.3332 3.78594 79.7886 11.4446 79.7654 20.31C79.7654 23.6055 80.6009 26.6457 82.0862 29.2682C84.1517 33.3528 85.9619 36.834 87.7953 39.7118C90.8356 44.4694 92.1816 50.109 91.7407 55.7253L91.3925 60.158C103.066 65.0781 107.638 59.0904 107.638 59.0904L107.104 51.0837C107.035 50.0393 107.777 49.1342 108.822 48.9718H108.845C122.584 46.7902 116.712 25.6478 116.132 19.4281Z" fill="#FEC1AD"/>
<path d="M98.3549 30.6375C98.2621 29.7092 97.4498 29.013 96.5215 29.1058C95.5932 29.1986 94.8969 30.0109 94.9898 30.9392C95.0826 31.8676 95.8949 32.5638 96.8232 32.471C97.7515 32.3781 98.4245 31.5659 98.3549 30.6375Z" fill="#060633"/>
<path d="M113.046 26.2744C112.953 25.3461 112.14 24.6499 111.212 24.7427C110.284 24.8355 109.588 25.6478 109.68 26.5761C109.773 27.5045 110.586 28.2007 111.514 28.1079C112.465 28.015 113.138 27.2028 113.046 26.2744Z" fill="#060633"/>
<path d="M92.0656 28.5488C91.9032 28.572 91.7175 28.5256 91.5551 28.456C91.0677 28.2239 90.8588 27.6205 91.0909 27.1331C91.8103 25.6478 94.2008 23.2342 98.1461 24.7891C98.6567 24.998 98.912 25.555 98.7031 26.0656C98.4942 26.5761 97.9372 26.8314 97.4267 26.6226C94.1776 25.3461 92.9243 27.8758 92.8779 27.9918C92.7155 28.3167 92.3906 28.5256 92.0656 28.5488Z" fill="#060633"/>
<path d="M107.638 24.4874C107.476 24.5106 107.29 24.4642 107.128 24.3946C106.64 24.1625 106.431 23.5591 106.663 23.0717C107.383 21.5864 109.773 19.1728 113.719 20.7277C114.229 20.9366 114.484 21.4936 114.276 22.0042C114.067 22.5147 113.51 22.77 112.999 22.5612C109.75 21.2847 108.497 23.8144 108.45 23.9304C108.288 24.2553 107.963 24.441 107.638 24.4874Z" fill="#060633"/>
<path d="M78.3499 23.4199L84.3839 35.2327L87.6098 34.2812L88.1436 18.2909L78.3499 23.4199Z" fill="#060633"/>
<path d="M88.0737 33.8402C87.7256 33.2833 87.1686 32.8887 86.542 32.6798C85.2424 32.2853 82.9912 31.9372 81.6219 33.585C79.6028 36.0218 84.6158 41.4989 88.77 38.1569C88.77 38.1801 89.9304 36.8109 88.0737 33.8402Z" fill="#FEC1AD"/>
<path d="M107.569 35.9521C106.014 36.8805 104.505 36.161 104.482 36.1378C104.343 36.0682 104.273 35.8825 104.343 35.7433C104.412 35.604 104.598 35.5344 104.737 35.604C104.807 35.6504 106.501 36.4395 107.963 34.8382C108.195 34.5829 108.311 34.374 108.311 34.2348C108.311 34.0259 108.033 33.7938 107.661 33.4689C106.826 32.703 105.41 31.4498 104.714 28.3631C104.668 28.2007 104.784 28.0382 104.946 28.015C105.109 27.9686 105.271 28.0847 105.294 28.2471C105.944 31.1481 107.221 32.2853 108.056 33.0511C108.52 33.4689 108.868 33.7706 108.891 34.2348C108.915 34.5597 108.752 34.8846 108.381 35.2791C108.149 35.5576 107.847 35.7665 107.569 35.9521Z" fill="#EA6868"/>
<path d="M112.581 12.6514C112.581 12.6514 115.343 14.2527 116.991 25.1837C116.991 25.1837 116.759 12.8371 115.273 11.6302C113.788 10.4002 112.581 12.6514 112.581 12.6514Z" fill="#060633"/>
<path d="M88.6078 58.5799H108.915L116.782 92.6259V157.956C116.782 157.956 98.1463 166.984 73.5923 155.171L80.7635 78.7244L88.6078 58.5799Z" fill="white"/>
<path d="M88.6076 58.5799C88.6076 58.5799 57.95 71.5531 51.9391 79.8848C45.905 88.2164 27.8493 124.351 36.1809 198.013H52.6818L53.0763 190.378L83.6411 193.395L88.6076 58.5799Z" fill="#121266"/>
<path d="M108.915 58.5799C108.915 58.5799 139.572 71.5531 145.583 79.8848C151.594 88.2164 169.673 124.351 161.341 198.013H144.075L144.446 190.378L113.881 193.395L108.915 58.5799Z" fill="#121266"/>
<path d="M53.1923 190.865C53.169 190.865 53.169 190.865 53.1923 190.865C53.0762 190.865 53.0066 190.772 53.0066 190.679C53.053 190.076 56.9519 129.805 65.1908 103.696C65.214 103.603 65.33 103.557 65.4228 103.58C65.5157 103.603 65.5621 103.719 65.5389 103.812C57.3001 129.898 53.4011 190.099 53.3547 190.703C53.3547 190.795 53.2851 190.865 53.1923 190.865Z" fill="#0A0A0A"/>
<path d="M144.423 190.122C144.33 190.122 144.237 190.053 144.237 189.937C144.214 189.241 141.498 119.199 136.044 103.789C136.021 103.696 136.068 103.58 136.161 103.557C136.253 103.534 136.369 103.58 136.393 103.673C141.87 119.153 144.585 189.241 144.608 189.937C144.608 190.053 144.515 190.122 144.423 190.122Z" fill="#0A0A0A"/>
<path d="M95.1987 62.386L98.7727 68.4664L91.323 154.475L102.811 172.995L111.328 154.011L103.066 67.9559L105.665 61.8754L98.6799 59.2761L95.1987 62.386Z" fill="#FA7267"/>
<path d="M30.3325 225.839H34.0922V219.086H47.0422V225.839H50.8019V218.691C50.8019 216.835 49.4095 215.303 47.7153 215.303H33.396C31.7018 215.303 30.3093 216.812 30.3093 218.691V225.839H30.3325Z" fill="#121266"/>
<path d="M0.649578 224.145H80.4849C80.8562 224.145 81.1347 224.447 81.1347 224.795V276.804C81.1347 277.175 80.833 277.454 80.4849 277.454H0.649578C0.278251 277.454 -0.000244141 277.152 -0.000244141 276.804V224.795C-0.000244141 224.447 0.301459 224.145 0.649578 224.145Z" fill="#0DA1E7"/>
<path d="M22.6043 222.66H15.5723V225.839H22.6043V222.66Z" fill="#060633"/>
<path d="M67.3028 222.66H60.2708V225.839H67.3028V222.66Z" fill="#060633"/>
<path d="M88.6074 58.5798L91.7869 54.9362L99.6776 58.5798L107.592 54.9362L108.914 58.5798L107.243 64.8228L100.026 60.1348L92.9937 65.2637L88.6074 58.5798Z" fill="white"/>
<path d="M48.1794 198.013C48.1794 198.013 52.0319 208.503 52.6817 211.845C53.3316 215.187 56.4182 217.926 54.724 218.923C53.0299 219.921 49.363 214.514 49.363 214.514C49.363 214.514 48.5275 216.417 48.249 218.552C47.9705 220.687 46.9262 222.637 45.348 222.544C43.7699 222.451 44.3269 218.784 44.3269 218.784C44.3269 218.784 43.3986 222.753 41.658 222.196C40.2423 221.755 40.544 216.487 40.544 216.487C40.544 216.487 39.7317 219.852 39.2676 220.71C38.7106 221.732 36.7843 222.08 36.8307 218.668C36.8771 215.257 36.9003 215.349 36.9003 215.349C36.9003 215.349 35.8096 218.691 35.299 219.341C34.7884 219.991 32.8158 220.2 33.3263 217.345C34.2082 212.356 36.8307 202.678 40.544 197.967H48.1794V198.013Z" fill="#FEC1AD"/>
<path d="M84.5229 1.58118C85.0335 1.0474 86.0083 0.629654 86.4492 1.23306C86.6349 1.46514 86.6349 1.79005 86.6117 2.09175C86.542 2.95045 86.3332 3.80914 86.0083 4.62142C89.0485 1.0474 94.131 -0.0665839 98.8422 0.00303991C103.553 0.0726637 108.218 1.09381 112.929 0.861733C114.786 0.768902 117.037 0.629654 118.128 2.13817C118.894 3.18253 118.708 4.73746 117.942 5.78182C117.177 6.82617 115.923 7.45279 114.67 7.7777C115.645 7.35995 116.852 7.63845 117.548 8.42752C118.244 9.21659 118.383 10.4698 117.85 11.3749C117.037 12.7674 115.204 13.0923 113.602 13.2084C108.497 13.6261 103.345 13.7653 98.2388 13.6493C98.9815 14.2527 99.7241 14.8561 100.467 15.4595C100.722 15.6684 100.977 15.8773 101.117 16.179C101.279 16.5967 101.14 17.0841 100.885 17.4554C100.258 18.4301 99.0511 18.9175 97.8907 18.9871C96.7303 19.0568 95.5699 18.8015 94.4327 18.6158C92.7618 18.3373 91.0676 18.2213 89.3734 18.2677C89.0253 18.2677 88.654 18.2909 88.3523 18.4533C87.9345 18.6622 87.6328 19.0568 87.3311 19.4281C85.5209 21.6096 82.6663 22.5147 79.9742 23.3502C79.1387 23.6055 78.0247 23.768 77.5606 23.0253C77.3749 22.7468 77.3517 22.3755 77.3517 22.0506C77.2124 17.9892 78.2104 13.8814 80.1831 10.3306C79.6725 11.2357 78.4193 11.4678 77.8623 10.4002C77.1428 9.05413 78.837 7.94015 79.8117 7.38316C80.6936 6.87259 81.5059 6.75655 82.1557 5.92106C83.1537 4.575 83.2697 2.88082 84.5229 1.58118Z" fill="#060633"/>
<path d="M76.6555 64.0569L82.6664 88.8662L76.6555 91.3727L85.521 142.801L88.6076 58.5799L76.6555 64.0569Z" fill="#060633"/>
<path d="M120.867 64.0569L114.856 88.8662L120.867 91.3727L112.001 142.801L108.915 58.5799L120.867 64.0569Z" fill="#060633"/>
<path d="M102.417 40.5473L112.582 37.9712C112.582 37.9712 114.531 42.2647 109.286 43.7268C104.064 45.1889 102.417 40.5473 102.417 40.5473Z" fill="white"/>
</svg>
