<svg width="1440" height="1215" viewBox="0 0 1440 1215" fill="none" xmlns="http://www.w3.org/2000/svg">
<mask id="mask0" mask-type="alpha" maskUnits="userSpaceOnUse" x="0" y="0" width="1440" height="1215">
<rect width="1440" height="1215" fill="#F8F8F8"/>
</mask>
<g mask="url(#mask0)">
<path d="M1035.61 1674.48C890.558 1491.44 870.446 1050.81 869.634 1032.12L943.986 1029.07C944.189 1033.34 963.895 1464.22 1093.91 1628.36L1035.61 1674.48Z" fill="#0DA1E7"/>
<path d="M-139.61 1509.72C-141.844 1167.42 81.8225 982.55 91.3705 974.831L138.095 1032.73L114.733 1003.88L138.298 1032.73C136.266 1034.35 -67.0857 1203.98 -65.0542 1509.32L-139.61 1509.72Z" fill="#0DA1E7"/>
<path d="M235.81 497.634C231.747 497.634 228.293 494.384 228.293 490.117V296.517C228.293 292.454 231.544 289 235.81 289C239.873 289 243.326 292.25 243.326 296.517V490.321C243.326 494.384 240.076 497.634 235.81 497.634Z" fill="#060633"/>
<path d="M172.021 617.898H277.455V474.272H172.021C169.583 474.272 167.552 476.303 167.552 478.741V613.429C167.552 615.867 169.583 617.898 172.021 617.898Z" fill="#0DA1E7"/>
<path d="M866.587 497.634C862.524 497.634 859.07 494.384 859.07 490.117V296.517C859.07 292.454 862.321 289 866.587 289C870.65 289 874.103 292.25 874.103 296.517V490.321C874.103 494.384 870.65 497.634 866.587 497.634Z" fill="#060633"/>
<path d="M930.376 617.898H825.145V474.272H930.579C933.017 474.272 935.048 476.303 935.048 478.741V613.429C934.845 615.867 932.813 617.898 930.376 617.898Z" fill="#0DA1E7"/>
<path d="M562.473 866.349C597.478 866.349 625.856 837.972 625.856 802.967C625.856 767.962 597.478 739.584 562.473 739.584C527.468 739.584 499.091 767.962 499.091 802.967C499.091 837.972 527.468 866.349 562.473 866.349Z" fill="#060633"/>
<path d="M917.984 1120.69C967.687 1120.69 1007.98 1080.4 1007.98 1030.7C1007.98 980.994 967.687 940.702 917.984 940.702C868.281 940.702 827.989 980.994 827.989 1030.7C827.989 1080.4 868.281 1120.69 917.984 1120.69Z" fill="#060633"/>
<path d="M221.386 1003.68C221.386 953.906 181.162 913.683 131.391 913.683C81.6195 913.683 41.396 953.906 41.396 1003.68C41.396 1053.45 81.6195 1093.67 131.391 1093.67C180.959 1093.67 221.386 1053.45 221.386 1003.68Z" fill="#060633"/>
<path d="M814.987 333.083H290.457C283.346 333.083 277.455 338.975 277.455 346.085V737.35C277.455 744.46 283.346 750.351 290.457 750.351H814.987C822.097 750.351 827.989 744.46 827.989 737.35V346.085C827.989 338.975 822.097 333.083 814.987 333.083Z" fill="#CDEEFE"/>
<path d="M752.823 388.746H349.776C344.697 388.746 340.431 393.012 340.431 398.091V680.671C340.431 685.75 344.697 690.016 349.776 690.016H752.823C757.902 690.016 762.168 685.75 762.168 680.671V398.294C762.168 393.012 757.902 388.746 752.823 388.746Z" fill="#060633"/>
<path d="M457.445 510.432C459.07 501.087 452.976 492.149 443.631 490.524C434.286 488.898 425.348 494.993 423.723 504.338C422.097 513.683 428.192 522.621 437.537 524.246C446.881 525.872 455.82 519.777 457.445 510.432Z" fill="white"/>
<path d="M693.504 507.995C695.129 498.65 689.035 489.711 679.69 488.086C670.345 486.461 661.406 492.555 659.781 501.9C658.156 511.245 664.25 520.183 673.595 521.809C682.94 523.434 691.879 517.339 693.504 507.995Z" fill="white"/>
<path d="M499.091 578.894H618.949C618.949 578.894 604.119 631.712 562.067 631.712C519.812 631.915 499.091 578.894 499.091 578.894Z" fill="white"/>
<path d="M562.473 845.019C562.473 845.019 797.11 876.303 879.995 929.732L805.033 1612.52H721.133C721.133 1612.52 716.46 1426.23 518.39 1426.23C320.32 1426.23 301.427 1596.67 301.427 1596.67H204.931L167.552 884.226C167.552 884.226 335.962 853.957 562.473 845.019Z" fill="#CDEEFE"/>
<path d="M771.92 940.499H264.86V1301.09H771.92V940.499Z" fill="#0DA1E7"/>
<path d="M334.54 982.957C334.54 973.815 327.227 966.502 318.085 966.502C308.943 966.502 301.63 973.815 301.63 982.957C301.63 992.098 308.943 999.412 318.085 999.412C327.227 999.412 334.54 992.098 334.54 982.957Z" fill="white"/>
<path d="M398.329 982.957C398.329 973.815 391.015 966.502 381.873 966.502C372.732 966.502 365.418 973.815 365.418 982.957C365.418 992.098 372.732 999.412 381.873 999.412C391.015 999.412 398.329 992.098 398.329 982.957Z" fill="white"/>
<path d="M461.305 982.957C461.305 973.815 453.991 966.502 444.85 966.502C435.708 966.502 428.395 973.815 428.395 982.957C428.395 992.098 435.708 999.412 444.85 999.412C453.991 999.412 461.305 992.098 461.305 982.957Z" fill="white"/>
<path d="M318.085 1090.91C327.173 1090.91 334.54 1083.54 334.54 1074.46C334.54 1065.37 327.173 1058 318.085 1058C308.997 1058 301.63 1065.37 301.63 1074.46C301.63 1083.54 308.997 1090.91 318.085 1090.91Z" fill="white"/>
<path d="M398.329 1074.46C398.329 1065.31 391.015 1058 381.873 1058C372.732 1058 365.418 1065.31 365.418 1074.46C365.418 1083.6 372.732 1090.91 381.873 1090.91C391.015 1091.11 398.329 1083.6 398.329 1074.46Z" fill="white"/>
<path d="M444.85 1090.91C453.937 1090.91 461.305 1083.54 461.305 1074.46C461.305 1065.37 453.937 1058 444.85 1058C435.762 1058 428.395 1065.37 428.395 1074.46C428.395 1083.54 435.762 1090.91 444.85 1090.91Z" fill="white"/>
<path d="M318.085 1182.91C327.173 1182.91 334.54 1175.54 334.54 1166.46C334.54 1157.37 327.173 1150 318.085 1150C308.997 1150 301.63 1157.37 301.63 1166.46C301.63 1175.54 308.997 1182.91 318.085 1182.91Z" fill="white"/>
<path d="M398.329 1166.46C398.329 1157.31 391.015 1150 381.873 1150C372.732 1150 365.418 1157.31 365.418 1166.46C365.418 1175.6 372.732 1182.91 381.873 1182.91C391.015 1183.11 398.329 1175.6 398.329 1166.46Z" fill="white"/>
<path d="M444.85 1182.91C453.937 1182.91 461.305 1175.54 461.305 1166.46C461.305 1157.37 453.937 1150 444.85 1150C435.762 1150 428.395 1157.37 428.395 1166.46C428.395 1175.54 435.762 1182.91 444.85 1182.91Z" fill="white"/>
</g>
</svg>
