<svg width="422" height="302" viewBox="0 0 422 302" fill="none" xmlns="http://www.w3.org/2000/svg">
<path d="M412.392 0H9.34486C4.26614 0 0 4.26613 0 9.34485V291.925C0 297.004 4.26614 301.27 9.34486 301.27H412.392C417.471 301.27 421.737 297.004 421.737 291.925V9.548C421.737 4.26613 417.471 0 412.392 0Z" fill="#060633"/>
<path d="M117.014 121.686C118.639 112.341 112.545 103.403 103.2 101.778C93.8551 100.153 84.9166 106.247 83.2914 115.592C81.6662 124.937 87.7606 133.875 97.1055 135.5C106.45 137.126 115.389 131.031 117.014 121.686Z" fill="white"/>
<path d="M353.073 119.249C354.698 109.904 348.604 100.965 339.259 99.34C329.914 97.7148 320.975 103.809 319.35 113.154C317.725 122.499 323.819 131.437 333.164 133.063C342.509 134.688 351.448 128.593 353.073 119.249Z" fill="white"/>
<path d="M158.66 190.147H278.518C278.518 190.147 263.688 242.966 221.636 242.966C179.381 243.169 158.66 190.147 158.66 190.147Z" fill="white"/>
</svg>
