<svg width="53" height="53" viewBox="0 0 53 53" fill="none" xmlns="http://www.w3.org/2000/svg">
<path fill-rule="evenodd" clip-rule="evenodd" d="M26.5 53C41.1355 53 53 41.1355 53 26.5C53 11.8645 41.1355 0 26.5 0C11.8645 0 0 11.8645 0 26.5C0 41.1355 11.8645 53 26.5 53ZM23.9358 33.6523C25.1623 32.5977 25.842 31.1523 25.9748 29.3164H22.4592C22.3811 30.3555 22.0725 31.125 21.5334 31.625C21.0022 32.1172 20.1936 32.3633 19.1077 32.3633C17.9045 32.3633 17.0217 31.9375 16.4592 31.0859C15.9045 30.2344 15.6272 28.8867 15.6272 27.043V25.7539C15.6428 23.9883 15.9397 22.6875 16.5178 21.8516C17.1038 21.0078 17.9827 20.5859 19.1545 20.5859C20.2327 20.5859 21.0334 20.8359 21.5569 21.3359C22.0881 21.8281 22.3967 22.625 22.4827 23.7266H25.9983C25.8108 21.8203 25.1155 20.3398 23.9123 19.2852C22.7092 18.2305 21.1233 17.7031 19.1545 17.7031C17.7327 17.7031 16.4827 18.0391 15.4045 18.7109C14.3342 19.375 13.51 20.332 12.9319 21.582C12.3538 22.832 12.0647 24.2773 12.0647 25.918V26.9609C12.0647 29.5312 12.6897 31.5547 13.9397 33.0312C15.1975 34.5 16.9202 35.2344 19.1077 35.2344C21.1077 35.2344 22.717 34.707 23.9358 33.6523ZM38.9353 17.9375L35.0681 30.7695L31.2244 17.9375H27.322L33.24 35H36.908L42.8494 17.9375H38.9353Z" fill="#060633"/>
</svg>
