<svg width="53" height="53" viewBox="0 0 53 53" fill="none" xmlns="http://www.w3.org/2000/svg">
<path d="M26.5 0C21.2588 0 16.1353 1.5542 11.7774 4.46605C7.4195 7.37791 4.02293 11.5166 2.0172 16.3589C0.011482 21.2011 -0.513306 26.5294 0.509202 31.6699C1.53171 36.8104 4.05559 41.5322 7.76168 45.2383C11.4678 48.9444 16.1896 51.4683 21.3301 52.4908C26.4706 53.5133 31.7989 52.9885 36.6411 50.9828C41.4834 48.9771 45.6221 45.5805 48.5339 41.2226C51.4458 36.8647 53 31.7412 53 26.5C53 19.4718 50.208 12.7314 45.2383 7.76167C40.2686 2.79196 33.5282 0 26.5 0V0ZM38.3455 17.331L26.5 27.1996L14.6545 17.331H38.3455ZM39.75 34.5295C39.7622 34.6831 39.7407 34.8376 39.687 34.9821C39.6334 35.1266 39.5489 35.2576 39.4394 35.3661C39.3299 35.4746 39.198 35.5579 39.0531 35.6102C38.9081 35.6625 38.7534 35.6826 38.5999 35.669H14.4001C14.2525 35.6867 14.1028 35.6722 13.9613 35.6265C13.8198 35.5808 13.69 35.505 13.5806 35.4042C13.4713 35.3034 13.3851 35.1802 13.3281 35.0429C13.271 34.9056 13.2443 34.7576 13.25 34.609V19.0482C13.25 18.9952 13.25 18.9475 13.25 18.8256L15.9 21.0198L25.758 29.2348C25.8536 29.3363 25.969 29.4172 26.0971 29.4726C26.2251 29.5279 26.3632 29.5564 26.5027 29.5564C26.6421 29.5564 26.7802 29.5279 26.9082 29.4726C27.0363 29.4172 27.1517 29.3363 27.2473 29.2348L39.379 19.1224L39.75 18.8362C39.75 18.9687 39.75 19.0535 39.75 19.1489V34.5189V34.5295Z" fill="#060633"/>
</svg>
