<svg width="50" height="49" viewBox="0 0 50 49" fill="none" xmlns="http://www.w3.org/2000/svg">
<path d="M22.2143 0.171488C10.6995 1.41029 1.43761 10.5774 0.186003 21.7267C-1.31593 34.1147 6.44404 44.7684 17.4582 48.2371V42.5386C17.4582 42.5386 16.4569 42.7863 15.2053 42.7863C11.7008 42.7863 10.1989 39.8132 9.94854 38.0789C9.69822 37.0878 9.19758 36.3446 8.44662 35.6013C7.69565 35.3535 7.44533 35.3535 7.44533 35.1058C7.44533 34.6102 8.19629 34.6102 8.44662 34.6102C9.94854 34.6102 11.2002 36.3446 11.7008 37.0879C12.9524 39.0699 14.4543 39.5655 15.2053 39.5655C16.2066 39.5655 16.9575 39.3177 17.4582 39.0699C17.7085 37.3356 18.4595 35.6013 19.9614 34.6102C14.204 33.3714 9.94854 30.1505 9.94854 24.6998C9.94854 21.9744 11.2002 19.2491 12.9524 17.267C12.7021 16.7715 12.4518 15.5327 12.4518 13.7983C12.4518 12.8073 12.4518 11.3207 13.2027 9.83416C13.2027 9.83416 16.7072 9.83416 20.2117 13.0551C21.4633 12.5595 23.2156 12.3118 24.9678 12.3118C26.7201 12.3118 28.4723 12.5595 29.9743 13.0551C33.2285 9.83416 36.9833 9.83416 36.9833 9.83416C37.4839 11.3207 37.4839 12.8073 37.4839 13.7983C37.4839 15.7804 37.2336 16.7715 36.9833 17.267C38.7355 19.2491 39.9871 21.7267 39.9871 24.6998C39.9871 30.1505 35.7317 33.3714 29.9743 34.6102C31.4762 35.849 32.4775 38.0789 32.4775 40.3087V48.4848C42.7407 45.264 50 35.849 50 24.9476C50 10.0819 37.2336 -1.56284 22.2143 0.171488Z" fill="#060633"/>
</svg>
