<svg width="38" height="38" viewBox="0 0 38 38" fill="none" xmlns="http://www.w3.org/2000/svg">
<path d="M19.0385 11.0159C18.0789 11.0159 17.3496 10.2866 17.3496 9.36536V1.68859C17.3496 0.767379 18.0789 0.0380859 19.0001 0.0380859H19.0385C19.9597 0.0380859 20.689 0.767379 20.689 1.68859V9.36536C20.689 10.2866 19.9597 11.0159 19.0385 11.0159Z" fill="#1B1B1B"/>
<path d="M15.0081 12.0908C14.2021 12.5514 13.1657 12.2827 12.7051 11.4767L8.86673 4.83626C8.40612 4.0302 8.67481 2.99384 9.48087 2.53323H9.51925C10.3253 2.07262 11.3617 2.34131 11.8223 3.14737L15.6607 9.78778C16.0829 10.5938 15.8142 11.6302 15.0081 12.0908Z" fill="#323232"/>
<path d="M12.0908 15.0081C11.6302 15.8142 10.5938 16.1213 9.78778 15.6607L3.14737 11.8223C2.34131 11.3617 2.07262 10.3253 2.53323 9.51925V9.48087C2.99384 8.67481 4.0302 8.40612 4.83626 8.86673L11.4767 12.7051C12.2827 13.1657 12.5514 14.2021 12.0908 15.0081Z" fill="#474747"/>
<path d="M11.0162 19C11.0162 19.9596 10.2869 20.6889 9.36566 20.6889H1.68889C0.729293 20.6889 0 19.9596 0 19.0384V19C0 18.0788 0.729293 17.3495 1.65051 17.3495H9.32727C10.2869 17.3111 11.0162 18.0788 11.0162 19Z" fill="#5E5E5E"/>
<path d="M12.0908 22.9913C12.5514 23.7973 12.2827 24.8337 11.4767 25.2943L4.83626 29.1327C4.0302 29.5933 2.99384 29.3246 2.53323 28.5186V28.4802C2.07262 27.6741 2.34131 26.6378 3.14737 26.1771L9.78778 22.3388C10.5938 21.9165 11.6302 22.1852 12.0908 22.9913Z" fill="#737373"/>
<path d="M15.0081 25.9087C15.8142 26.3693 16.1213 27.4057 15.6607 28.2117L11.8223 34.8522C11.3617 35.6582 10.3253 35.9269 9.51925 35.4663H9.48087C8.67481 35.0057 8.40612 33.9693 8.86673 33.1633L12.7051 26.5229C13.1657 25.7168 14.2021 25.4481 15.0081 25.9087Z" fill="#868686"/>
<path d="M19 26.9834C19.9596 26.9834 20.6889 27.7127 20.6889 28.6339V36.3107C20.6889 37.2319 19.9596 37.9612 19.0384 37.9612H19C18.0788 37.9612 17.3495 37.2319 17.3495 36.3107V28.6339C17.3111 27.7511 18.0788 26.9834 19 26.9834Z" fill="#9A9A9A"/>
<path d="M22.9923 25.9087C23.7983 25.4481 24.8347 25.7168 25.2953 26.5229L29.1337 33.1633C29.5943 33.9693 29.3256 35.0057 28.5195 35.4663H28.4812C27.6751 35.9269 26.6387 35.6582 26.1781 34.8522L22.3397 28.2117C21.9175 27.4057 22.1862 26.4077 22.9923 25.9087Z" fill="#AFAFAF"/>
<path d="M25.9092 22.9917C26.3698 22.1857 27.4062 21.8786 28.2122 22.3392L34.8526 26.1776C35.6587 26.6382 35.9274 27.6745 35.4668 28.4806V28.519C35.0062 29.325 33.9698 29.5937 33.1638 29.1331L26.5233 25.2947C25.7173 24.8341 25.4486 23.7978 25.9092 22.9917Z" fill="#C2C2C2"/>
<path d="M26.9839 19.038C26.9839 18.0784 27.7132 17.3491 28.6344 17.3491H36.3112C37.2324 17.3491 37.9617 18.0784 37.9617 18.9996V19.038C37.9617 19.9592 37.2324 20.6885 36.3112 20.6885H28.6344C27.7516 20.6885 26.9839 19.9592 26.9839 19.038Z" fill="#D7D7D7"/>
<path d="M25.9092 15.0081C25.4486 14.2021 25.7173 13.1657 26.5233 12.7051L33.1638 8.86673C33.9698 8.40612 35.0062 8.67481 35.4668 9.48087V9.51925C35.9274 10.3253 35.6587 11.3617 34.8526 11.8223L28.2122 15.6607C27.4062 16.0829 26.4082 15.8142 25.9092 15.0081Z" fill="#EBEBEB"/>
<path d="M22.9917 12.0908C22.1857 11.6302 21.8786 10.5938 22.3392 9.78778L26.1776 3.14737C26.6382 2.34131 27.6745 2.07262 28.4806 2.53323H28.519C29.325 2.99384 29.5937 4.0302 29.1331 4.83626L25.2947 11.4767C24.8341 12.2827 23.7978 12.5514 22.9917 12.0908Z" fill="#FAFAFA"/>
</svg>
