<svg width="198" height="380" viewBox="0 0 198 380" fill="none" xmlns="http://www.w3.org/2000/svg">
<path d="M88.856 10.3992C88.856 10.3992 90.0795 0 93.1625 0C96.2455 0 93.1625 8.00124 93.1625 8.00124C93.1625 8.00124 99.8424 3.89051 108.847 6.14163C117.851 8.36827 135.004 13.0418 130.33 14.9014C125.681 16.761 120.812 16.9568 120.812 16.9568C120.812 16.9568 134.147 25.6187 131.113 28.7262C128.079 31.8582 123.993 28.7262 123.993 28.7262C123.993 28.7262 128.642 37.4125 126.415 41.3275C124.189 45.267 121.571 45.5851 121.571 45.5851L111.49 49.9894L90.2263 46.5638C90.2263 46.5638 87.29 53.0725 82.8123 52.0448C78.3345 51.0416 79.0686 44.7042 79.0686 44.7042C79.0686 44.7042 76.1079 45.8542 73.3184 45.8298C70.529 45.8053 76.8664 21.6303 76.8664 21.6303C76.8664 21.6303 69.0364 30.6347 67.9353 28.7262C66.8098 26.8176 73.2206 13.9716 85.0144 12.479C85.0144 12.479 78.8728 6.50866 81.5154 5.94588C84.1336 5.40757 88.856 10.3992 88.856 10.3992Z" fill="#060633"/>
<path d="M124.36 231.693C124.36 231.693 126.048 268.47 124.36 288.608C122.672 308.721 107.036 361.818 107.036 361.818H90.8379C90.8379 361.818 101.898 291.96 100.846 280.778C99.7934 269.595 95.5359 224.891 95.5359 224.891L124.36 231.693Z" fill="#FEC1AD"/>
<path d="M111.22 354.844H88.5869C88.5869 354.844 86.0666 380.267 88.5869 379.998C91.1072 379.729 121.571 379.998 121.571 379.998C121.571 379.998 124.262 373.856 107.966 369.648L111.22 354.844Z" fill="#0B0755"/>
<path d="M85.1858 229.638C85.1858 229.638 74.3217 264.824 65.9534 283.2C57.5607 301.576 24.8951 346.256 24.8951 346.256L9.65112 340.775C9.65112 340.775 43.6625 278.747 46.4519 267.883C49.2414 256.994 60.3501 213.489 60.3501 213.489L85.1858 229.638Z" fill="#FEC1AD"/>
<path d="M30.1834 342.659L8.87125 335C8.87125 335 -2.09069 358.074 0.356171 358.661C2.8275 359.248 31.3824 369.819 31.3824 369.819C31.3824 369.819 36.007 364.95 22.0843 355.48L30.1834 342.659Z" fill="#0B0755"/>
<path d="M116.921 38.1955C116.921 38.1955 118.487 36.0178 119.613 36.9721C122.5 39.3945 119.417 42.2818 117.411 42.869L116.921 38.1955Z" fill="#FEC1AD"/>
<path d="M117.9 29.9985C117.9 29.7783 117.925 29.5336 117.925 29.2889C118.316 18.8164 109.801 10.0811 99.1573 10.3992C90.2996 10.6438 82.7877 17.4217 81.6377 26.2059C81.2218 29.4602 81.6622 32.6167 82.7877 35.4061C84.3048 39.737 85.675 43.4318 87.1187 46.5149C89.5411 51.6288 90.1528 57.4034 89.0028 62.9333L88.1219 67.2887C99.0839 73.6506 104.394 68.3164 104.394 68.3164L104.907 60.2907C104.981 59.2385 105.837 58.4311 106.889 58.4066H106.914C120.812 57.9906 117.68 36.238 117.9 29.9985Z" fill="#FEC1AD"/>
<path d="M98.7902 38.8562C98.8146 37.9264 98.1051 37.1434 97.1508 37.0944C96.221 37.07 95.438 37.7796 95.389 38.7338C95.3646 39.6636 96.0742 40.4466 97.0284 40.4956C97.9582 40.52 98.7412 39.786 98.7902 38.8562Z" fill="#050521"/>
<path d="M113.961 36.4093C113.985 35.4795 113.275 34.6965 112.321 34.6476C111.391 34.6231 110.608 35.3327 110.559 36.287C110.535 37.2168 111.245 37.9998 112.199 38.0487C113.129 38.0732 113.936 37.3391 113.961 36.4093Z" fill="#050521"/>
<path d="M93.8476 37.7551C93.6764 37.7551 93.5051 37.7061 93.3338 37.5838C92.8689 37.2902 92.7466 36.6785 93.0402 36.2136C93.9455 34.8188 96.6371 32.739 100.356 34.7699C100.846 35.0391 101.017 35.6263 100.748 36.1157C100.479 36.6051 99.8914 36.7763 99.402 36.5072C96.3435 34.8433 94.7775 37.1923 94.704 37.2902C94.5328 37.6083 94.1902 37.7796 93.8476 37.7551Z" fill="#050521"/>
<path d="M109.067 35.6997C108.896 35.6997 108.725 35.6508 108.553 35.5284C108.088 35.2348 107.966 34.6231 108.26 34.1582C109.165 32.7635 111.857 30.6836 115.576 32.7145C116.065 32.9837 116.236 33.5709 115.967 34.0603C115.698 34.5497 115.111 34.721 114.622 34.4518C111.563 32.788 109.997 35.1369 109.924 35.2348C109.728 35.5529 109.41 35.7242 109.067 35.6997Z" fill="#050521"/>
<path d="M79.8271 29.1421L84.3049 41.6456L87.6571 41.1073L90.2263 25.2761L79.8271 29.1421Z" fill="#060633"/>
<path d="M107.256 45.3159C105.593 46.0499 104.173 45.1201 104.173 45.1201C104.027 45.0223 104.002 44.851 104.1 44.7042C104.198 44.5818 104.369 44.5329 104.516 44.6308C104.589 44.6797 106.155 45.6829 107.819 44.2882C108.088 44.068 108.235 43.8722 108.26 43.7254C108.284 43.5297 108.039 43.2605 107.721 42.869C106.987 42.0126 105.739 40.569 105.446 37.4125C105.421 37.2412 105.544 37.0944 105.715 37.0944C105.886 37.07 106.009 37.1923 106.033 37.3636C106.302 40.3243 107.428 41.6211 108.162 42.4775C108.553 42.9424 108.871 43.3095 108.847 43.7499C108.822 44.068 108.627 44.3616 108.211 44.7286C107.893 44.9978 107.575 45.1935 107.256 45.3159Z" fill="#EA6868"/>
<path d="M115.233 22.8047C115.233 22.8047 117.778 24.7378 118.022 35.8221C118.022 35.8221 119.368 23.5388 118.047 22.1196C116.725 20.7249 115.233 22.8047 115.233 22.8047Z" fill="#060633"/>
<path d="M88.1465 38.0242C88.1465 38.0242 90.6668 49.1819 96.9063 48.2521C103.146 47.3223 103.611 46.417 106.449 45.8542C109.287 45.2914 114.842 47.6404 116.114 45.8542C117.387 44.068 118.023 35.8221 118.023 35.8221C118.023 35.8221 122.843 50.4788 120.812 51.2373C118.781 51.9713 118.757 51.0415 118.634 51.2373C118.512 51.433 121.595 55.2501 120.151 57.0119C118.708 58.7736 116.114 58.5045 116.114 58.5045C116.114 58.5045 115.796 62.6152 112.126 61.8567C108.455 61.1226 106.474 60.1683 106.474 60.1683C106.474 60.1683 104.834 61.2939 102.583 61.2939C100.356 61.2939 99.2308 60.5598 98.0318 59.9971C96.8329 59.4343 95.8052 59.263 94.1169 59.263C92.4285 59.263 90.8136 60.0949 88.8806 58.3332C86.9475 56.5715 83.7177 49.6713 85.0635 44.1659C86.3603 38.6604 88.1465 38.0242 88.1465 38.0242Z" fill="#060633"/>
<path d="M88.1709 40.7158C87.9017 40.1041 87.4123 39.6392 86.8006 39.37C85.5527 38.8072 83.375 38.171 81.7846 39.6392C79.46 41.7924 83.7421 47.8851 88.2932 45.1201C88.2932 45.1446 89.6145 43.9212 88.1709 40.7158Z" fill="#FEC1AD"/>
<path d="M112.909 48.1542C113.276 48.4723 113.398 48.8883 113.104 49.4511C112.223 51.1639 109.777 51.5064 108.064 51.6777C107.134 51.7756 106.204 51.7756 105.274 51.8735C104.075 51.9958 102.852 52.2894 101.702 51.6777C100.038 50.7969 100.919 49.3287 102.167 48.6192C103.366 47.9585 104.834 47.7627 106.18 47.6893C107.501 47.6159 108.847 47.3223 110.168 47.3713C110.902 47.4202 112.272 47.5915 112.909 48.1542Z" fill="#FB9391"/>
<path d="M102.558 50.2096C102.485 50.2096 102.412 50.1607 102.387 50.0873C102.338 49.9894 102.387 49.8671 102.485 49.8426C102.681 49.7692 107.281 47.8117 111.514 48.766C111.612 48.7904 111.685 48.8883 111.661 48.9862C111.636 49.0841 111.538 49.1575 111.441 49.133C107.305 48.2032 102.681 50.1607 102.632 50.1852C102.607 50.2096 102.583 50.2096 102.558 50.2096Z" fill="#050521"/>
<path d="M89.7369 36.1891C89.7859 36.4827 89.8837 36.8253 90.1529 36.9721C90.4955 37.1679 90.9604 36.9476 91.254 36.6785C93.0647 35.1125 93.554 32.5433 93.6519 30.1454C93.7498 27.7719 93.554 25.3006 94.4104 23.0739C95.0956 25.1293 95.903 27.1357 96.8573 29.0687C97.7871 30.9773 99.3776 33.0816 101.482 32.7635C102.289 30.6837 102.069 28.2857 101.286 26.1814C100.503 24.0771 99.2552 22.1931 98.0073 20.3334C103.929 21.826 107.868 27.6496 113.643 29.607C113.985 29.7294 114.328 29.8273 114.695 29.7539C115.356 29.6315 115.772 28.9464 115.869 28.2857C116.188 26.3527 114.573 24.6644 113.104 23.3675C114.45 23.0984 115.649 24.1505 116.506 25.2272C117.362 26.3038 118.194 27.5272 119.515 27.8698C120.91 24.4197 119.833 20.3579 117.558 17.4217C115.258 14.5099 111.93 12.5769 108.504 11.1577C104.981 9.66511 101.164 8.61296 97.3711 9.07786C95.8296 9.27361 94.3126 9.71405 92.8444 10.2768C89.1252 11.7205 85.7241 14.045 83.2038 17.1525C80.708 20.2356 79.142 24.1505 79.0686 28.1389C79.0441 29.289 79.2399 30.5858 80.1942 31.1975C82.2985 32.5678 84.9655 30.3656 87.1677 30.5369C89.8593 30.7571 89.3454 34.1827 89.7369 36.1891Z" fill="#060633"/>
<path d="M59.249 106.096V129.292L100.821 112.531L95.5115 94.7915L73.2206 90.7297L59.249 106.096Z" fill="#FB9391"/>
<path d="M104.393 68.3164C104.393 68.3164 121.008 73.6016 126.978 81.4316C132.948 89.2616 137.402 136.217 139.286 141.062C141.145 145.906 164.244 176.615 164.244 176.615L159.032 182.438C159.032 182.438 126.953 157.847 120.812 145.172C114.67 132.498 108.162 108.641 108.162 108.641L61.2063 109.179C61.2063 109.179 44.1516 126.601 43.0505 139.642C41.925 152.684 43.8825 187.234 43.8825 187.234L35.6855 188.384C35.6855 188.384 21.7139 149.968 28.7853 123.518C35.8568 97.0671 59.9094 72.4516 68.1064 70.4207C76.3034 68.3654 88.1218 67.2887 88.1218 67.2887L104.393 68.3164Z" fill="#FEC1AD"/>
<path d="M123.259 132.84C123.259 132.84 118.83 166.754 118.072 171.231C117.313 175.709 118.072 188.408 118.072 188.408L59.249 190.611L51.7126 107.148L95.5115 94.7915L118.047 104.53L123.259 132.84Z" fill="#FEC1AD"/>
<path d="M117.827 173.409C117.827 173.409 127.736 253.813 127.736 279.872C127.736 305.931 118.071 337.765 118.071 337.765L107.99 333.948L99.4263 335.563L90.8623 337.765C90.8623 337.765 96.49 289.391 95.5358 279.872C94.5815 270.354 90.8378 224.867 90.8378 224.867C90.8378 224.867 77.796 273.682 68.865 290.076C59.9339 306.47 40.1632 329.225 40.1632 329.225L43.0995 320.392L36.0525 320.661L29.7151 323.647L19.2915 316.575C19.2915 316.575 42.0229 268.91 43.8825 263.503C45.7421 258.095 57.9764 176.615 57.9764 176.615L117.827 173.409Z" fill="#D35650"/>
<path d="M121.473 146.763C121.448 146.763 121.448 146.763 121.473 146.763C121.228 146.738 121.081 146.567 121.081 146.347C121.106 145.906 123.601 102.988 122.867 97.8745C122.843 97.6543 122.99 97.4586 123.185 97.4341C123.381 97.3852 123.601 97.5564 123.626 97.7522C124.36 102.94 121.962 144.61 121.84 146.396C121.84 146.592 121.668 146.763 121.473 146.763Z" fill="#EA6868"/>
<path d="M96.9061 159.242C96.9061 158.483 96.2944 157.896 95.5604 157.896C94.8018 157.896 94.2146 158.508 94.2146 159.242C94.2146 160 94.8263 160.588 95.5604 160.588C96.2944 160.612 96.9061 160 96.9061 159.242Z" fill="#050521"/>
<path d="M115.429 112.727C116.172 112.727 116.775 112.124 116.775 111.381C116.775 110.638 116.172 110.035 115.429 110.035C114.686 110.035 114.083 110.638 114.083 111.381C114.083 112.124 114.686 112.727 115.429 112.727Z" fill="#EA6868"/>
<path d="M69.3055 114.073C70.0487 114.073 70.6513 113.47 70.6513 112.727C70.6513 111.984 70.0487 111.381 69.3055 111.381C68.5622 111.381 67.9597 111.984 67.9597 112.727C67.9597 113.47 68.5622 114.073 69.3055 114.073Z" fill="#EA6868"/>
<path d="M169.064 190.537C170.63 189.681 170.483 186.231 172.172 185.668C172.979 185.032 173.811 184.445 174.668 183.857C175.206 183.515 175.744 183.246 176.307 183.025C174.863 181.729 172.735 179.428 172.735 179.428C172.735 179.428 180.075 183.221 180.124 181.533C180.173 179.844 175.035 176.835 172.294 175.783C169.578 174.731 160.99 172.259 160.99 172.259L156.683 178.303C158.225 182.609 161.65 186.818 164.782 189.632C165.541 188.922 168.159 191.051 169.064 190.537Z" fill="#FEC1AD"/>
<path d="M186.197 64.3247L139.956 337.504L143.02 338.023L189.261 64.8434L186.197 64.3247Z" fill="#050521"/>
<path d="M101.58 82.8753C101.58 82.8753 112.077 80.5263 110.462 82.8753C108.847 85.2243 103.317 85.42 103.317 85.42C103.317 85.42 111.661 89.6775 110.462 90.7297C109.263 91.7818 104.834 90.7297 104.834 90.7297C104.834 90.7297 109.777 98.5352 106.131 98.5597C102.461 98.5841 100.136 96.6756 100.136 96.6756C100.136 96.6756 103.513 102.646 101.604 103.282C99.6958 103.918 97.5425 105.191 97.5425 105.191C97.5425 105.191 98.7904 108.176 97.5425 109.228C96.2946 110.28 93.7009 113.706 93.7009 113.706C93.7009 113.706 97.7872 115.835 95.8787 117.547C93.9701 119.26 90.52 116.055 90.52 116.055C90.52 116.055 88.2934 107.319 88.587 105.191C88.8562 103.062 86.3114 107.735 85.039 106.243C83.7667 104.75 88.0732 97.0915 88.0732 97.0915C88.0732 97.0915 84.8433 99.7831 83.3507 98.5352C81.8581 97.2873 88.0732 90.7052 88.0732 90.7052C88.0732 90.7052 77.9921 94.3266 77.7719 90.9254C77.5761 87.5243 88.587 85.1753 88.587 85.1753C88.587 85.1753 80.3411 81.138 82.0539 79.6454C83.7667 78.1528 94.2148 83.487 94.2148 83.487C94.2148 83.487 98.6436 77.3209 100.552 77.5166C102.461 77.7613 101.58 82.8753 101.58 82.8753Z" fill="#060633"/>
<path d="M190.229 64.5727L197.13 56.2778L194.707 32.9103L183.231 53.9533L186.217 63.3737L190.229 64.5727Z" fill="#0DA1E7"/>
<path d="M189.202 71.5463H184.724C184.284 71.5463 183.941 71.2037 183.941 70.7633C183.941 70.3229 184.284 69.9803 184.724 69.9803H186.437L184.528 68.8058C184.235 68.6345 184.112 68.292 184.186 67.9739C184.259 67.6558 184.528 67.4111 184.871 67.3621L185.63 67.2887L184.161 66.8483C183.819 66.7504 183.574 66.4079 183.599 66.0653C183.623 65.6983 183.892 65.4047 184.259 65.3557L186.535 64.9887L185.165 64.7195C184.749 64.6461 184.479 64.2302 184.553 63.8142C184.626 63.3982 185.042 63.1291 185.458 63.2025L191.037 64.328C191.404 64.4014 191.673 64.7195 191.673 65.111C191.673 65.4781 191.38 65.7962 191.013 65.8696L187.832 66.3834L189.789 66.9707C190.156 67.0685 190.376 67.4111 190.327 67.7781C190.303 68.1451 190.009 68.4388 189.642 68.4877L187.293 68.7324L189.593 70.1271C189.887 70.2984 190.034 70.6654 189.936 71.008C189.863 71.3016 189.544 71.5463 189.202 71.5463Z" fill="#D35650"/>
<path d="M177.53 183.906C177.53 183.906 171.364 179.11 170.581 179.869C169.798 180.652 173.713 185.448 173.615 185.399C173.518 185.35 168.624 181.019 167.229 181.68C165.834 182.34 170.581 187.674 170.581 187.674C170.581 187.674 166.275 183.27 165.345 183.784C164.415 184.298 168.086 188.947 167.767 189.216C167.449 189.485 164.611 185.228 163.436 185.815C162.262 186.402 166.03 192.544 167.523 192.544C169.015 192.544 169.333 191.076 169.333 191.076C169.333 191.076 171.829 190.806 172.294 189.51C172.294 189.51 175.353 187.968 174.961 186.5C174.961 186.524 177.971 186.378 177.53 183.906Z" fill="#FEC1AD"/>
<path d="M42.1208 183.662C42.1208 183.662 47.5528 192.519 48.7518 195.455C49.9263 198.392 53.254 200.349 51.8838 201.548C50.5135 202.772 46.1826 198.49 46.1826 198.49C46.1826 198.49 45.6198 204.9 45.7422 206.882C45.8645 208.864 45.1794 212.51 43.7357 212.706C42.2921 212.902 42.341 203.285 42.341 203.285C42.341 203.285 41.4846 211.385 40.1878 211.849C38.8909 212.314 38.4505 201.866 38.4505 201.866C38.4505 201.866 37.9611 210.553 37.3249 211.189C36.6888 211.825 35.8324 211.042 35.2696 207.934C34.7068 204.827 34.9025 201.499 34.9025 201.499C34.9025 201.499 34.0951 207.567 33.7525 208.277C33.41 208.962 32.4067 209.672 32.0397 204.974C31.6727 200.276 32.5536 189.974 35.0738 185.007L42.1208 183.662Z" fill="#FEC1AD"/>
</svg>
