<svg width="51" height="51" viewBox="0 0 51 51" fill="none" xmlns="http://www.w3.org/2000/svg">
<rect x="3" y="3" width="45" height="45" fill="#FA7064" stroke="#F3F3F3" stroke-width="5"/>
<path d="M39.4091 27.5122C39.2073 27.2094 38.9313 27.0224 38.5811 26.9515L36.3911 26.551C36.5098 24.7231 36.1567 22.9929 35.3316 21.361L37.2188 19.9991C37.5216 19.7853 37.6996 19.4915 37.7531 19.1178C37.8182 18.7677 37.7412 18.4501 37.5216 18.1653L37.3704 17.9338C37.1685 17.6491 36.8748 17.4737 36.4891 17.4086C36.1567 17.3551 35.8391 17.4382 35.5367 17.6578L33.7207 18.9666C32.4922 17.6075 31.0293 16.6431 29.332 16.0734L29.7415 13.5806C29.8066 13.2246 29.7295 12.8951 29.51 12.5923C29.3081 12.3076 29.0321 12.1322 28.6819 12.0671L28.4059 12.0135C28.0499 11.9661 27.7204 12.0432 27.4176 12.245C27.1326 12.4646 26.9575 12.7497 26.8924 13.0995L26.5184 15.4943C25.7113 15.423 24.922 15.4378 24.1504 15.5388C23.7112 15.5565 23.2988 15.6336 22.9129 15.7703C22.711 15.8177 22.5182 15.877 22.3341 15.9483L21.2213 13.5267C21.073 13.2062 20.8296 12.9809 20.4913 12.8503C20.1589 12.7139 19.8326 12.7197 19.5121 12.868L19.2628 13.0015C18.9423 13.1321 18.705 13.3755 18.5506 13.7315C18.4319 14.0639 18.4497 14.3902 18.6041 14.7107L19.7346 17.1767C19.6694 17.2122 19.604 17.257 19.5389 17.3102C17.8415 18.4971 16.6308 19.9897 15.9066 21.7883L13.663 21.2898C13.3129 21.2008 12.9866 21.2659 12.6838 21.4855C12.3633 21.6577 12.1705 21.9189 12.105 22.269L12.0257 22.518C11.9602 22.8739 12.0199 23.2183 12.2037 23.5507C12.4055 23.8354 12.6844 24.0224 13.0404 24.1114L15.1769 24.6099C14.9396 26.4914 15.2095 28.2628 15.9869 29.9247L14.2421 31.1087C13.9394 31.3105 13.7466 31.5894 13.6634 31.9454C13.616 32.2956 13.693 32.6219 13.8949 32.9247L14.0461 33.1294C14.248 33.4322 14.5149 33.625 14.8474 33.7082C15.2214 33.7556 15.5596 33.6785 15.8621 33.4767L17.5178 32.3727C18.7108 33.8504 20.1795 34.9157 21.9246 35.5687L21.5241 37.6074C21.459 37.9634 21.527 38.302 21.7289 38.6222C21.9307 38.9069 22.2067 39.0823 22.5569 39.1474L22.8152 39.2009C23.1653 39.2841 23.4916 39.2335 23.7944 39.0497C24.0972 38.8301 24.281 38.5422 24.3464 38.1862L24.7469 36.2277C26.6815 36.4296 28.5036 36.1358 30.2129 35.3465L31.5036 37.305C31.7054 37.6078 31.9902 37.7945 32.3584 37.8657C32.6966 37.9489 33.0171 37.8896 33.3199 37.6877L33.5424 37.563C33.8451 37.3611 34.038 37.0735 34.1212 36.6995C34.1866 36.3493 34.1182 36.023 33.9164 35.7202L32.6879 33.8062C34.1656 32.6132 35.2162 31.1445 35.8394 29.3994L38.0562 29.7999C38.4064 29.865 38.7327 29.797 39.0354 29.5952C39.3202 29.3994 39.4956 29.1234 39.5607 28.7671L39.6142 28.5179C39.6794 28.1622 39.611 27.8269 39.4091 27.5122ZM23.2598 22.6714C22.9941 23.2934 22.5449 23.7345 21.9126 23.9941C21.28 24.254 20.6487 24.2569 20.018 24.0031C19.3938 23.7522 18.9543 23.3163 18.6992 22.6953C18.4442 22.0743 18.4497 21.4529 18.7153 20.8309C18.9875 20.2119 19.4399 19.7721 20.0725 19.5125C20.7051 19.2526 21.3332 19.2484 21.9575 19.4993C22.5882 19.753 23.0309 20.1906 23.2859 20.8113C23.5406 21.432 23.5319 22.052 23.2598 22.6714Z" fill="black"/>
<path d="M23.2598 22.6714C22.9941 23.2934 22.5449 23.7345 21.9126 23.9941C21.28 24.254 20.6487 24.2569 20.018 24.0031C19.3938 23.7522 18.9543 23.3163 18.6992 22.6953C18.4442 22.0743 18.4497 21.4529 18.7153 20.8309C18.9875 20.2119 19.4399 19.7721 20.0725 19.5125C20.7051 19.2526 21.3332 19.2484 21.9575 19.4993C22.5882 19.753 23.0309 20.1906 23.2859 20.8113C23.5406 21.432 23.5319 22.052 23.2598 22.6714Z" fill="black"/>
<circle cx="21" cy="22" r="2" fill="white"/>
</svg>
