<svg width="51" height="51" viewBox="0 0 51 51" fill="none" xmlns="http://www.w3.org/2000/svg">
<rect x="3" y="3" width="45" height="45" stroke="#F3F3F3" stroke-width="5"/>
<path d="M21.5898 23.0586H24.2441C25.5801 23.0586 26.5703 22.7246 27.2148 22.0566C27.8594 21.377 28.1816 20.4922 28.1816 19.4023C28.1816 18.8984 28.1055 18.4414 27.9531 18.0312C27.8125 17.6094 27.5957 17.252 27.3027 16.959C27.0098 16.6543 26.6348 16.4199 26.1777 16.2559C25.7324 16.0918 25.2109 16.0098 24.6133 16.0098C24.1211 16.0098 23.6582 16.0801 23.2246 16.2207C22.8027 16.3613 22.4277 16.5664 22.0996 16.8359C21.7832 17.0937 21.5312 17.4102 21.3437 17.7852C21.1562 18.1602 21.0625 18.582 21.0625 19.0508H16.1758C16.1758 18.0078 16.3867 17.0586 16.8086 16.2031C17.2422 15.3477 17.834 14.6152 18.584 14.0059C19.334 13.3848 20.2129 12.9043 21.2207 12.5645C22.2402 12.2246 23.3359 12.0547 24.5078 12.0547C25.7734 12.0547 26.9336 12.2129 27.9883 12.5293C29.043 12.834 29.9453 13.2969 30.6953 13.918C31.4453 14.5273 32.0254 15.2891 32.4355 16.2031C32.8574 17.1055 33.0684 18.1543 33.0684 19.3496C33.0684 19.9004 32.9863 20.4453 32.8223 20.9844C32.6582 21.5117 32.418 22.0156 32.1016 22.4961C31.7852 22.9766 31.3926 23.4219 30.9238 23.832C30.4551 24.2305 29.916 24.5762 29.3066 24.8691C30.0215 25.127 30.6367 25.4551 31.1523 25.8535C31.6797 26.252 32.1133 26.709 32.4531 27.2246C32.793 27.7285 33.0449 28.2852 33.209 28.8945C33.373 29.5039 33.4551 30.1484 33.4551 30.8281C33.4551 32.0234 33.2266 33.0898 32.7695 34.0273C32.3125 34.9648 31.6855 35.7559 30.8887 36.4004C30.0918 37.0332 29.1426 37.5195 28.041 37.8594C26.9512 38.1875 25.7734 38.3516 24.5078 38.3516C23.418 38.3516 22.3516 38.2051 21.3086 37.9121C20.2773 37.6074 19.3574 37.1562 18.5488 36.5586C17.7402 35.9492 17.0898 35.1875 16.5977 34.2734C16.1172 33.3594 15.877 32.2812 15.877 31.0391H20.7637C20.7637 31.5312 20.8574 31.9883 21.0449 32.4102C21.2324 32.8203 21.4961 33.1777 21.8359 33.4824C22.1875 33.7754 22.5977 34.0098 23.0664 34.1855C23.5352 34.3496 24.0508 34.4316 24.6133 34.4316C25.8555 34.4316 26.8281 34.1035 27.5312 33.4473C28.2344 32.791 28.5859 31.9004 28.5859 30.7754C28.5859 30.084 28.4863 29.4922 28.2871 29C28.0879 28.5078 27.7949 28.1035 27.4082 27.7871C27.0332 27.4707 26.5762 27.2363 26.0371 27.084C25.5098 26.9316 24.9121 26.8555 24.2441 26.8555H21.5898V23.0586Z" fill="#FA7267"/>
</svg>
