<svg width="199" height="142" viewBox="0 0 199 142" fill="none" xmlns="http://www.w3.org/2000/svg">
<mask id="mask0" mask-type="alpha" maskUnits="userSpaceOnUse" x="0" y="0" width="199" height="142">
<rect width="199" height="142" fill="#C4C4C4"/>
</mask>
<g mask="url(#mask0)">
<path d="M41.0897 78.8553C40.149 79.0474 39.1957 78.458 38.9941 77.4702L29.8445 32.6435C29.6525 31.7027 30.2418 30.7495 31.2296 30.5478C32.1704 30.3558 33.1236 30.9452 33.3253 31.933L42.4845 76.8068C42.6765 77.7475 42.0775 78.6537 41.0897 78.8553Z" fill="#060633"/>
<path d="M32.0033 109.716L56.4158 104.733L49.6279 71.4778L25.2155 76.4607C24.651 76.5759 24.2767 77.1423 24.3919 77.7067L30.7573 108.893C30.8725 109.457 31.4389 109.831 32.0033 109.716Z" fill="#0DA1E7"/>
<path d="M187.141 49.0448C186.2 49.2368 185.247 48.6474 185.045 47.6596L175.896 2.83292C175.704 1.89217 176.293 0.938914 177.281 0.737296C178.222 0.545279 179.175 1.13467 179.377 2.12246L188.536 46.9962C188.728 47.937 188.082 48.8528 187.141 49.0448Z" fill="#060633"/>
<path d="M207.594 73.8762L183.229 78.8495L176.441 45.594L200.853 40.6111C201.418 40.4959 201.984 40.8703 202.099 41.4348L208.465 72.6206C208.533 73.1947 208.159 73.761 207.594 73.8762Z" fill="#0DA1E7"/>
<path d="M134.151 148.79C142.256 147.136 147.486 139.224 145.831 131.119C144.177 123.014 136.265 117.785 128.16 119.439C120.055 121.093 114.825 129.005 116.48 137.11C118.134 145.215 126.046 150.445 134.151 148.79Z" fill="#060633"/>
<path d="M167.416 13.3828L45.9655 38.1722C44.3192 38.5082 43.2335 40.1507 43.5695 41.797L62.0608 132.391C62.3968 134.038 64.0393 135.123 65.6856 134.787L187.136 109.998C188.783 109.662 189.868 108.019 189.532 106.373L171.041 15.7787C170.705 14.1324 169.063 13.0467 167.416 13.3828Z" fill="#CDEEFE"/>
<path d="M155.654 29.209L62.3312 48.2571C61.1553 48.4971 60.3691 49.6865 60.6091 50.8625L73.9639 116.292C74.2039 117.468 75.3933 118.254 76.5693 118.014L169.892 98.9656C171.068 98.7255 171.854 97.5362 171.614 96.3602L158.269 30.9781C158.019 29.7551 156.83 28.969 155.654 29.209Z" fill="white"/>
<path d="M140.822 59.6826C140.757 57.4421 138.923 55.6605 136.683 55.7258C134.442 55.7912 132.661 57.6247 132.726 59.8653C132.791 62.1058 134.625 63.8874 136.865 63.8221C139.106 63.7567 140.888 61.9232 140.822 59.6826Z" fill="#060633"/>
<path d="M105.89 89.2275L133.642 83.563C133.642 83.563 132.705 96.4936 122.968 98.481C113.194 100.525 105.89 89.2275 105.89 89.2275Z" fill="#060633"/>
<path d="M152.582 54.0501C151.157 50.091 148.352 46.7779 144.679 44.7177C141.007 42.6575 136.713 41.9882 132.585 42.8323C128.457 43.6763 124.771 45.9774 122.202 49.3138C119.633 52.6503 118.353 56.7988 118.597 60.9994L108.354 63.0938C106.847 59.2591 104.032 56.0792 100.407 54.1142C96.7821 52.1492 92.5782 51.525 88.5359 52.3516C84.4937 53.1781 80.8722 55.4024 78.3094 58.6327C75.7465 61.8631 74.4065 65.8923 74.5255 70.0109L64.4594 72.0692L65.461 76.9678L75.3898 74.9376C76.718 79.0269 79.5082 82.4834 83.2275 84.6472C86.9468 86.8109 91.3345 87.5302 95.5528 86.6676C99.7711 85.8051 103.524 83.4212 106.096 79.9712C108.667 76.5211 109.876 72.2468 109.493 67.9643L119.598 65.898C121.023 69.8571 123.829 73.1702 127.501 75.2304C131.174 77.2906 135.467 77.9599 139.595 77.1159C143.723 76.2718 147.409 73.9707 149.978 70.6343C152.547 67.2978 153.827 63.1494 153.584 58.9488L163.571 56.9065L162.57 52.0079L152.582 54.0501ZM94.5448 81.7381C91.6327 82.3277 88.6061 81.8661 86.0039 80.4357C83.4017 79.0052 81.3927 76.6986 80.3345 73.9265C80.0951 73.3008 79.9086 72.6561 79.7769 71.9992C79.5764 71.0086 79.4933 69.9979 79.5291 68.9878C79.6476 66.1976 80.6974 63.5268 82.5113 61.4006C84.3252 59.2743 86.7989 57.8149 89.5385 57.2547C92.2782 56.6945 95.1262 57.0658 97.6291 58.3093C100.132 59.5529 102.146 61.5972 103.35 64.1169C103.78 65.0318 104.1 65.9941 104.304 66.9838C104.441 67.6397 104.523 68.3059 104.548 68.9754C104.663 71.9403 103.721 74.8504 101.889 77.1875C100.057 79.5247 97.4546 81.1372 94.5448 81.7381V81.7381ZM138.594 72.2207C135.768 72.7935 132.83 72.3764 130.276 71.0396C127.722 69.7028 125.708 67.5279 124.572 64.8809C123.915 63.3312 123.574 61.6657 123.571 59.9822C123.568 57.0987 124.563 54.3022 126.388 52.0665C128.212 49.8309 130.755 48.2936 133.583 47.7152C136.412 47.1367 139.354 47.5527 141.91 48.8926C144.466 50.2325 146.479 52.4139 147.608 55.0672C148.265 56.6169 148.606 58.2824 148.609 59.9659C148.604 62.8462 147.605 65.6372 145.781 67.8692C143.957 70.1012 141.419 71.6379 138.594 72.2207V72.2207Z" fill="#FA7064"/>
</g>
</svg>
