<svg width="48" height="48" viewBox="0 0 48 48" fill="none" xmlns="http://www.w3.org/2000/svg">
<path d="M42.3365 20.3579C40.5769 11.8939 29.6881 1.07396 20.5767 6.81615C11.1694 6.93736 4.45443 16.6452 4.4529 25.6057C4.451 37.6374 15.4992 44.5005 26.585 42.9902C37.5667 41.4922 44.5889 31.1969 42.3365 20.3579ZM26.3128 32.9805C20.5228 34.6701 14.5414 31.7208 13.9446 25.4908C13.4356 20.1853 16.0496 17.2006 19.5715 14.657C19.9179 14.8555 20.3014 15.0253 20.7528 15.1348C25.9777 16.403 30.2066 14.9873 32.1987 21.2985C33.8042 26.396 31.4713 31.4749 26.3128 32.9805Z" fill="#CDEEFE"/>
</svg>
