<svg width="45" height="49" viewBox="0 0 45 49" fill="none" xmlns="http://www.w3.org/2000/svg">
<path d="M28.8844 5.15956C25.8462 3.77495 23.0914 5.64463 22.1041 8.01936C21.6939 7.39522 21.0572 6.90071 20.2279 6.88448C11.1927 6.71044 5.26917 16.9489 4.37516 24.8234C3.367 33.6974 7.8389 42.0833 16.9029 44.1572C39.9334 49.4251 48.7283 14.1995 28.8844 5.15956ZM18.1347 35.0181C13.2963 33.9601 12.5317 27.6747 13.1794 23.6696C14.1291 17.7993 17.8106 14.6692 21.8576 10.8333C22.1475 11.8335 22.8327 12.7518 24.1275 13.358C34.8916 18.397 31.5297 37.9476 18.1347 35.0181Z" fill="#CDEEFE"/>
</svg>
