<svg width="234" height="380" viewBox="0 0 234 380" fill="none" xmlns="http://www.w3.org/2000/svg">
<path d="M206.054 187.451H201.608C201.539 187.451 201.469 187.521 201.469 187.591V203.863C201.469 203.933 201.539 204.003 201.608 204.003H206.054C206.124 204.003 206.194 203.933 206.194 203.863V187.591C206.194 187.521 206.124 187.451 206.054 187.451Z" fill="#060633"/>
<path d="M211.872 187.171L207.404 188.312C207.31 188.335 207.264 188.405 207.287 188.498L211.872 206.331C211.896 206.424 211.965 206.471 212.059 206.447L216.527 205.307C216.597 205.283 216.667 205.213 216.644 205.12L212.059 187.288C212.035 187.195 211.965 187.148 211.872 187.171Z" fill="#060633"/>
<path d="M219.786 178.372L215.946 180.886C215.876 180.932 215.853 181.026 215.899 181.095L226.001 196.507C226.047 196.577 226.14 196.6 226.21 196.553L230.05 194.039C230.12 193.993 230.144 193.899 230.097 193.83L219.996 178.418C219.949 178.325 219.856 178.325 219.786 178.372Z" fill="#060633"/>
<path d="M214.875 171.062L214.596 175.648C214.596 175.741 214.666 175.811 214.736 175.811L233.123 176.951C233.216 176.951 233.286 176.882 233.286 176.812L233.565 172.226C233.565 172.133 233.496 172.063 233.426 172.063L215.038 170.922C214.945 170.899 214.875 170.969 214.875 171.062Z" fill="#060633"/>
<path d="M217.086 184.401L212.827 186.124C212.757 186.147 212.71 186.24 212.734 186.333L220.345 205.213C220.368 205.283 220.461 205.33 220.554 205.307L224.813 203.584C224.883 203.561 224.93 203.467 224.906 203.374L217.295 184.494C217.249 184.401 217.179 184.355 217.086 184.401Z" fill="#060633"/>
<path d="M169.745 295.843L149.589 292.374C155.361 258.874 146.284 203.258 146.19 202.699L166.37 199.347C166.766 201.768 176.099 258.967 169.745 295.843Z" fill="#0DA1E7"/>
<path d="M71.5244 298.147L58.0947 282.713C81.9982 261.9 95.1486 204.631 98.1976 184.308L118.424 187.358C117.935 190.64 105.948 268.186 71.5244 298.147Z" fill="#0DA1E7"/>
<path d="M195.185 158.77C178.566 137.795 176.262 87.3001 176.169 85.1584L184.688 84.8092C184.711 85.298 186.969 134.675 201.865 153.485L195.185 158.77Z" fill="#0DA1E7"/>
<path d="M60.5385 139.89C60.2825 100.663 85.9083 79.478 87.0022 78.5934L92.3555 85.2282L89.6789 81.9224L92.3788 85.2282C92.146 85.4144 68.8477 104.853 69.0805 139.843L60.5385 139.89Z" fill="#0DA1E7"/>
<path d="M103.551 23.9086C103.085 23.9086 102.689 23.5361 102.689 23.0472V0.861361C102.689 0.395761 103.062 0 103.551 0C104.016 0 104.412 0.372481 104.412 0.861361V23.0705C104.412 23.5361 104.039 23.9086 103.551 23.9086Z" fill="#060633"/>
<path d="M96.2425 37.6904H108.322V21.2314H96.2425C95.9632 21.2314 95.7305 21.4642 95.7305 21.7435V37.1782C95.7305 37.4576 95.9632 37.6904 96.2425 37.6904Z" fill="#0DA1E7"/>
<path d="M175.819 23.9086C175.354 23.9086 174.958 23.5361 174.958 23.0472V0.861361C174.958 0.395761 175.33 0 175.819 0C176.285 0 176.68 0.372481 176.68 0.861361V23.0705C176.68 23.5361 176.285 23.9086 175.819 23.9086Z" fill="#060633"/>
<path d="M183.128 37.6904H171.071V21.2314H183.151C183.43 21.2314 183.663 21.4642 183.663 21.7435V37.1782C183.64 37.4576 183.407 37.6904 183.128 37.6904Z" fill="#0DA1E7"/>
<path d="M140.977 66.1619C144.987 66.1619 148.238 62.9099 148.238 58.8985C148.238 54.887 144.987 51.6351 140.977 51.6351C136.966 51.6351 133.715 54.887 133.715 58.8985C133.715 62.9099 136.966 66.1619 140.977 66.1619Z" fill="#060633"/>
<path d="M181.708 95.3084C187.403 95.3084 192.019 90.6911 192.019 84.9954C192.019 79.2996 187.403 74.6823 181.708 74.6823C176.014 74.6823 171.397 79.2996 171.397 84.9954C171.397 90.6911 176.014 95.3084 181.708 95.3084Z" fill="#060633"/>
<path d="M171.444 201.023C171.444 192.642 164.648 185.845 156.269 185.845C147.89 185.845 141.093 192.642 141.093 201.023C141.093 209.404 147.89 216.202 156.269 216.202C164.648 216.202 171.444 209.404 171.444 201.023Z" fill="#060633"/>
<path d="M120.053 196.716C120.053 188.335 113.256 181.538 104.877 181.538C96.4985 181.538 89.7021 188.335 89.7021 196.716C89.7021 205.097 96.4985 211.895 104.877 211.895C113.256 211.895 120.053 205.097 120.053 196.716Z" fill="#060633"/>
<path d="M101.898 81.8992C101.898 76.1955 97.2896 71.5861 91.5872 71.5861C85.8848 71.5861 81.2764 76.1955 81.2764 81.8992C81.2764 87.6028 85.8848 92.2122 91.5872 92.2122C97.2663 92.2122 101.898 87.6028 101.898 81.8992Z" fill="#060633"/>
<path d="M169.908 5.05176H109.812C108.997 5.05176 108.322 5.72688 108.322 6.54168V51.379C108.322 52.1938 108.997 52.8689 109.812 52.8689H169.908C170.723 52.8689 171.398 52.1938 171.398 51.379V6.54168C171.398 5.72688 170.723 5.05176 169.908 5.05176Z" fill="#CDEEFE"/>
<path d="M162.785 11.4305H116.608C116.026 11.4305 115.537 11.9194 115.537 12.5014V44.8839C115.537 45.4659 116.026 45.9548 116.608 45.9548H162.785C163.367 45.9548 163.856 45.4659 163.856 44.8839V12.5247C163.856 11.9194 163.367 11.4305 162.785 11.4305Z" fill="#060633"/>
<path d="M128.943 25.3753C129.13 24.3044 128.431 23.28 127.361 23.0938C126.29 22.9076 125.266 23.606 125.08 24.6769C124.894 25.7477 125.592 26.7721 126.663 26.9583C127.733 27.1445 128.757 26.4461 128.943 25.3753Z" fill="white"/>
<path d="M155.989 25.0959C156.176 24.025 155.477 23.0007 154.407 22.8144C153.336 22.6282 152.312 23.3266 152.126 24.3975C151.94 25.4683 152.638 26.4927 153.708 26.6789C154.779 26.8651 155.803 26.1667 155.989 25.0959Z" fill="white"/>
<path d="M133.715 33.2206H147.447C147.447 33.2206 145.748 39.2734 140.93 39.2734C136.089 39.2967 133.715 33.2206 133.715 33.2206Z" fill="white"/>
<path d="M164.159 147.409V175.043L100.641 169.525L103.411 130.834C103.411 130.834 131.643 116.191 132.412 116.004C133.18 115.795 154.36 120.707 154.36 120.707L164.159 147.409Z" fill="#0DA1E7"/>
<path d="M140.977 63.7175C140.977 63.7175 167.859 67.3026 177.355 73.4252L168.767 151.669H159.154C159.154 151.669 158.619 130.322 135.926 130.322C113.233 130.322 111.068 149.854 111.068 149.854H100.013L95.73 68.2105C95.73 68.2105 115.025 64.7418 140.977 63.7175Z" fill="#CDEEFE"/>
<path d="M98.4999 160.609C98.4999 160.609 137.462 171.667 166.626 167.058V188.522C166.626 188.522 155.57 190.873 150.357 195.529C145.143 200.208 138.998 212.477 126.43 210.94C113.838 209.404 113.838 190.943 104.645 188.522C95.4276 186.077 93.5889 184.564 93.5889 184.564L98.4999 160.609Z" fill="#CDEEFE"/>
<path d="M205.682 133.348L175.983 145.314C175.797 145.384 175.727 145.593 175.797 145.78L196.535 197.252C196.744 197.764 197.326 198.02 197.861 197.81L226.327 186.333C226.839 186.124 227.095 185.542 226.885 185.006L206.147 133.534C206.054 133.371 205.868 133.278 205.682 133.348Z" fill="#CDEEFE"/>
<path d="M56.6281 277.964L74.8758 299.311L27.6275 339.516C27.6275 339.516 33.4462 369.873 27.6275 371.875C27.6275 371.875 0 334.813 0 333.161C0 331.508 56.6281 277.964 56.6281 277.964Z" fill="#CDEEFE"/>
<path d="M146.795 290.418L174.609 294.329L165.811 355.742C165.811 355.742 190.273 374.622 187.224 380C187.224 380 142.001 370.502 140.907 369.291C139.836 368.081 146.795 290.418 146.795 290.418Z" fill="#CDEEFE"/>
<path d="M152.964 352.786C151.358 350.97 148.565 350.784 146.749 352.413C144.934 354.019 144.747 356.813 146.377 358.629C147.983 360.445 150.776 360.631 152.591 359.001C154.407 357.395 154.57 354.601 152.964 352.786Z" fill="#0DA1E7"/>
<path d="M164.973 74.6591H106.879V115.981H164.973V74.6591Z" fill="#0DA1E7"/>
<path d="M114.862 79.5246C114.862 78.477 114.024 77.6389 112.977 77.6389C111.93 77.6389 111.092 78.477 111.092 79.5246C111.092 80.5722 111.93 81.4103 112.977 81.4103C114.024 81.4103 114.862 80.5722 114.862 79.5246Z" fill="white"/>
<path d="M112.977 90.8154C114.018 90.8154 114.862 89.9712 114.862 88.9297C114.862 87.8883 114.018 87.044 112.977 87.044C111.936 87.044 111.092 87.8883 111.092 88.9297C111.092 89.9712 111.936 90.8154 112.977 90.8154Z" fill="white"/>
<path d="M112.977 102.479C114.018 102.479 114.862 101.634 114.862 100.593C114.862 99.5516 114.018 98.7073 112.977 98.7073C111.936 98.7073 111.092 99.5516 111.092 100.593C111.092 101.634 111.936 102.479 112.977 102.479Z" fill="white"/>
<path d="M112.977 113.234C114.018 113.234 114.862 112.39 114.862 111.348C114.862 110.307 114.018 109.463 112.977 109.463C111.936 109.463 111.092 110.307 111.092 111.348C111.092 112.39 111.936 113.234 112.977 113.234Z" fill="white"/>
<path d="M122.171 79.5246C122.171 78.477 121.333 77.6389 120.286 77.6389C119.238 77.6389 118.4 78.477 118.4 79.5246C118.4 80.5722 119.238 81.4103 120.286 81.4103C121.333 81.4103 122.171 80.5722 122.171 79.5246Z" fill="white"/>
<path d="M122.171 88.9297C122.171 87.8821 121.333 87.044 120.286 87.044C119.238 87.044 118.4 87.8821 118.4 88.9297C118.4 89.9773 119.238 90.8154 120.286 90.8154C121.333 90.8387 122.171 89.9773 122.171 88.9297Z" fill="white"/>
<path d="M122.171 100.593C122.171 99.5454 121.333 98.7073 120.286 98.7073C119.238 98.7073 118.4 99.5454 118.4 100.593C118.4 101.641 119.238 102.479 120.286 102.479C121.333 102.502 122.171 101.641 122.171 100.593Z" fill="white"/>
<path d="M122.171 111.348C122.171 110.301 121.333 109.463 120.286 109.463C119.238 109.463 118.4 110.301 118.4 111.348C118.4 112.396 119.238 113.234 120.286 113.234C121.333 113.234 122.171 112.396 122.171 111.348Z" fill="white"/>
<path d="M129.386 79.5246C129.386 78.477 128.548 77.6389 127.5 77.6389C126.453 77.6389 125.615 78.477 125.615 79.5246C125.615 80.5722 126.453 81.4103 127.5 81.4103C128.548 81.4103 129.386 80.5722 129.386 79.5246Z" fill="white"/>
<path d="M127.5 90.8154C128.542 90.8154 129.386 89.9712 129.386 88.9297C129.386 87.8883 128.542 87.044 127.5 87.044C126.459 87.044 125.615 87.8883 125.615 88.9297C125.615 89.9712 126.459 90.8154 127.5 90.8154Z" fill="white"/>
<path d="M127.5 102.479C128.542 102.479 129.386 101.634 129.386 100.593C129.386 99.5516 128.542 98.7073 127.5 98.7073C126.459 98.7073 125.615 99.5516 125.615 100.593C125.615 101.634 126.459 102.479 127.5 102.479Z" fill="white"/>
<path d="M127.5 113.234C128.542 113.234 129.386 112.39 129.386 111.348C129.386 110.307 128.542 109.463 127.5 109.463C126.459 109.463 125.615 110.307 125.615 111.348C125.615 112.39 126.459 113.234 127.5 113.234Z" fill="white"/>
<path d="M158.014 84.0176C158.014 80.5955 155.244 77.8252 151.823 77.8252C148.402 77.8252 145.632 80.5955 145.632 84.0176C145.632 87.4398 148.402 90.2101 151.823 90.2101C155.244 90.2101 158.014 87.4398 158.014 84.0176Z" fill="#FA7267"/>
<path d="M203.525 143.635L201.011 144.485L210.379 172.209L212.892 171.359L203.525 143.635Z" fill="#0DA1E7"/>
<path d="M59.9332 189.197L55.8368 187.474C55.7669 187.451 55.6738 187.474 55.6506 187.544L49.3198 202.536C49.2965 202.606 49.3198 202.699 49.3896 202.723L53.486 204.445C53.5558 204.469 53.6489 204.445 53.6722 204.375L59.9797 189.383C60.0496 189.313 60.003 189.22 59.9332 189.197Z" fill="#060633"/>
<path d="M65.403 191.199L60.8411 190.524C60.748 190.5 60.6782 190.57 60.6782 190.663L58.0016 208.892C57.9783 208.985 58.0481 209.055 58.1412 209.055L62.7031 209.73C62.7962 209.753 62.8661 209.683 62.8661 209.59L65.5427 191.362C65.5427 191.292 65.4961 191.199 65.403 191.199Z" fill="#060633"/>
<path d="M76.1097 186.147L71.571 186.985C71.4779 187.008 71.4314 187.078 71.4547 187.171L74.783 205.283C74.8063 205.376 74.8761 205.423 74.9692 205.4L79.5078 204.562C79.6009 204.538 79.6475 204.468 79.6242 204.375L76.2959 186.264C76.2726 186.17 76.2028 186.124 76.1097 186.147Z" fill="#060633"/>
<path d="M74.4102 177.487L72.362 181.608C72.3154 181.677 72.362 181.771 72.4318 181.817L88.9338 190.012C89.0036 190.058 89.0967 190.012 89.1433 189.942L91.1915 185.821C91.238 185.751 91.1915 185.658 91.1217 185.612L74.6197 177.417C74.5499 177.394 74.4568 177.417 74.4102 177.487Z" fill="#060633"/>
<path d="M71.2912 190.663L66.6828 190.594C66.5897 190.594 66.5199 190.663 66.5199 190.733L66.2173 211.08C66.2173 211.173 66.2871 211.243 66.3569 211.243L70.9654 211.313C71.0585 211.313 71.1283 211.243 71.1283 211.173L71.4309 190.826C71.4542 190.733 71.3843 190.663 71.2912 190.663Z" fill="#060633"/>
<path d="M80.5782 139.191L48.5518 138.702C48.3656 138.702 48.2026 138.865 48.2026 139.052L47.3647 194.528C47.3647 195.087 47.807 195.552 48.3656 195.552L79.0653 196.018C79.6239 196.018 80.0894 195.576 80.0894 195.017L80.9273 139.541C80.9273 139.354 80.7644 139.191 80.5782 139.191Z" fill="#CDEEFE"/>
<path d="M74.5815 147.825L71.9351 147.633L69.8184 176.82L72.4649 177.012L74.5815 147.825Z" fill="#0DA1E7"/>
</svg>
