<svg width="350" height="421" viewBox="0 0 350 421" fill="none" xmlns="http://www.w3.org/2000/svg">
<circle cx="175" cy="175" r="175" fill="#FA7267"/>
<path d="M264.054 228.451H259.608C259.539 228.451 259.469 228.521 259.469 228.591V244.863C259.469 244.933 259.539 245.003 259.608 245.003H264.054C264.124 245.003 264.194 244.933 264.194 244.863V228.591C264.194 228.521 264.124 228.451 264.054 228.451Z" fill="#060633"/>
<path d="M269.872 228.171L265.404 229.312C265.31 229.335 265.264 229.405 265.287 229.498L269.872 247.331C269.896 247.424 269.965 247.471 270.059 247.447L274.527 246.307C274.597 246.283 274.667 246.213 274.644 246.12L270.059 228.288C270.035 228.195 269.965 228.148 269.872 228.171Z" fill="#060633"/>
<path d="M277.786 219.372L273.946 221.886C273.876 221.932 273.853 222.026 273.899 222.095L284.001 237.507C284.047 237.577 284.14 237.6 284.21 237.553L288.05 235.039C288.12 234.993 288.144 234.899 288.097 234.83L277.996 219.418C277.949 219.325 277.856 219.325 277.786 219.372Z" fill="#060633"/>
<path d="M272.875 212.062L272.596 216.648C272.596 216.741 272.666 216.811 272.736 216.811L291.123 217.951C291.216 217.951 291.286 217.882 291.286 217.812L291.565 213.226C291.565 213.133 291.496 213.063 291.426 213.063L273.038 211.922C272.945 211.899 272.875 211.969 272.875 212.062Z" fill="#060633"/>
<path d="M275.086 225.401L270.827 227.124C270.757 227.147 270.71 227.24 270.734 227.333L278.345 246.213C278.368 246.283 278.461 246.33 278.554 246.307L282.813 244.584C282.883 244.561 282.93 244.467 282.906 244.374L275.295 225.494C275.249 225.401 275.179 225.355 275.086 225.401Z" fill="#060633"/>
<path d="M227.745 336.843L207.589 333.374C213.361 299.874 204.284 244.258 204.19 243.699L224.37 240.347C224.766 242.768 234.099 299.967 227.745 336.843Z" fill="#0DA1E7"/>
<path d="M129.524 339.147L116.095 323.713C139.998 302.9 153.149 245.631 156.198 225.308L176.424 228.358C175.935 231.64 163.948 309.186 129.524 339.147Z" fill="#0DA1E7"/>
<path d="M253.185 199.77C236.566 178.795 234.262 128.3 234.169 126.158L242.688 125.809C242.711 126.298 244.969 175.675 259.865 194.485L253.185 199.77Z" fill="#0DA1E7"/>
<path d="M118.539 180.89C118.283 141.663 143.908 120.478 145.002 119.593L150.355 126.228L147.679 122.922L150.379 126.228C150.146 126.414 126.848 145.853 127.08 180.843L118.539 180.89Z" fill="#0DA1E7"/>
<path d="M161.551 64.9086C161.085 64.9086 160.689 64.5361 160.689 64.0472V41.8614C160.689 41.3958 161.062 41 161.551 41C162.016 41 162.412 41.3725 162.412 41.8614V64.0705C162.412 64.5361 162.039 64.9086 161.551 64.9086Z" fill="#060633"/>
<path d="M154.243 78.6904H166.322V62.2314H154.243C153.963 62.2314 153.73 62.4642 153.73 62.7435V78.1782C153.73 78.4576 153.963 78.6904 154.243 78.6904Z" fill="#0DA1E7"/>
<path d="M233.819 64.9086C233.354 64.9086 232.958 64.5361 232.958 64.0472V41.8614C232.958 41.3958 233.33 41 233.819 41C234.285 41 234.68 41.3725 234.68 41.8614V64.0705C234.68 64.5361 234.285 64.9086 233.819 64.9086Z" fill="#060633"/>
<path d="M241.128 78.6904H229.071V62.2314H241.151C241.43 62.2314 241.663 62.4642 241.663 62.7435V78.1782C241.64 78.4576 241.407 78.6904 241.128 78.6904Z" fill="#0DA1E7"/>
<path d="M198.977 107.162C202.987 107.162 206.238 103.91 206.238 99.8985C206.238 95.887 202.987 92.6351 198.977 92.6351C194.966 92.6351 191.715 95.887 191.715 99.8985C191.715 103.91 194.966 107.162 198.977 107.162Z" fill="#060633"/>
<path d="M239.708 136.308C245.403 136.308 250.019 131.691 250.019 125.995C250.019 120.3 245.403 115.682 239.708 115.682C234.014 115.682 229.397 120.3 229.397 125.995C229.397 131.691 234.014 136.308 239.708 136.308Z" fill="#060633"/>
<path d="M229.444 242.023C229.444 233.642 222.648 226.845 214.269 226.845C205.89 226.845 199.093 233.642 199.093 242.023C199.093 250.404 205.89 257.202 214.269 257.202C222.648 257.202 229.444 250.404 229.444 242.023Z" fill="#060633"/>
<path d="M178.053 237.716C178.053 229.335 171.256 222.538 162.877 222.538C154.498 222.538 147.702 229.335 147.702 237.716C147.702 246.097 154.498 252.895 162.877 252.895C171.256 252.895 178.053 246.097 178.053 237.716Z" fill="#060633"/>
<path d="M159.898 122.899C159.898 117.196 155.29 112.586 149.587 112.586C143.885 112.586 139.276 117.196 139.276 122.899C139.276 128.603 143.885 133.212 149.587 133.212C155.266 133.212 159.898 128.603 159.898 122.899Z" fill="#060633"/>
<path d="M227.908 46.0518H167.812C166.997 46.0518 166.322 46.7269 166.322 47.5417V92.379C166.322 93.1938 166.997 93.8689 167.812 93.8689H227.908C228.723 93.8689 229.398 93.1938 229.398 92.379V47.5417C229.398 46.7269 228.723 46.0518 227.908 46.0518Z" fill="#CDEEFE"/>
<path d="M220.785 52.4305H174.608C174.026 52.4305 173.537 52.9194 173.537 53.5014V85.8839C173.537 86.4659 174.026 86.9548 174.608 86.9548H220.785C221.367 86.9548 221.856 86.4659 221.856 85.8839V53.5247C221.856 52.9194 221.367 52.4305 220.785 52.4305Z" fill="#060633"/>
<path d="M186.943 66.3753C187.13 65.3044 186.431 64.28 185.361 64.0938C184.29 63.9076 183.266 64.606 183.08 65.6769C182.894 66.7477 183.592 67.7721 184.663 67.9583C185.733 68.1445 186.757 67.4461 186.943 66.3753Z" fill="white"/>
<path d="M213.989 66.0959C214.176 65.025 213.477 64.0007 212.407 63.8144C211.336 63.6282 210.312 64.3266 210.126 65.3975C209.94 66.4683 210.638 67.4927 211.708 67.6789C212.779 67.8651 213.803 67.1667 213.989 66.0959Z" fill="white"/>
<path d="M191.715 74.2206H205.447C205.447 74.2206 203.748 80.2734 198.93 80.2734C194.089 80.2967 191.715 74.2206 191.715 74.2206Z" fill="white"/>
<path d="M222.159 188.409V216.043L158.641 210.525L161.411 171.834C161.411 171.834 189.643 157.191 190.412 157.004C191.18 156.795 212.36 161.707 212.36 161.707L222.159 188.409Z" fill="#0DA1E7"/>
<path d="M198.977 104.717C198.977 104.717 225.859 108.303 235.355 114.425L226.767 192.669H217.154C217.154 192.669 216.619 171.322 193.926 171.322C171.233 171.322 169.068 190.854 169.068 190.854H158.013L153.73 109.21C153.73 109.21 173.025 105.742 198.977 104.717Z" fill="#CDEEFE"/>
<path d="M156.5 201.609C156.5 201.609 195.462 212.667 224.626 208.058V229.522C224.626 229.522 213.57 231.873 208.357 236.529C203.143 241.208 196.998 253.477 184.43 251.94C171.838 250.404 171.838 231.943 162.645 229.522C153.428 227.077 151.589 225.564 151.589 225.564L156.5 201.609Z" fill="#CDEEFE"/>
<path d="M263.682 174.348L233.983 186.314C233.797 186.384 233.727 186.593 233.797 186.78L254.535 238.252C254.744 238.764 255.326 239.02 255.861 238.81L284.327 227.333C284.839 227.124 285.095 226.542 284.885 226.006L264.147 174.534C264.054 174.371 263.868 174.278 263.682 174.348Z" fill="#CDEEFE"/>
<path d="M114.628 318.964L132.876 340.311L85.6275 380.516C85.6275 380.516 91.4462 410.873 85.6275 412.875C85.6275 412.875 58 375.813 58 374.161C58 372.508 114.628 318.964 114.628 318.964Z" fill="#CDEEFE"/>
<path d="M204.795 331.418L232.609 335.329L223.811 396.742C223.811 396.742 248.273 415.622 245.224 421C245.224 421 200.001 411.502 198.907 410.291C197.836 409.081 204.795 331.418 204.795 331.418Z" fill="#CDEEFE"/>
<path d="M210.964 393.786C209.358 391.97 206.565 391.784 204.749 393.413C202.934 395.019 202.747 397.813 204.377 399.629C205.983 401.445 208.776 401.631 210.591 400.001C212.407 398.395 212.57 395.601 210.964 393.786Z" fill="#0DA1E7"/>
<path d="M222.973 115.659H164.879V156.981H222.973V115.659Z" fill="#0DA1E7"/>
<path d="M172.862 120.525C172.862 119.477 172.024 118.639 170.977 118.639C169.93 118.639 169.092 119.477 169.092 120.525C169.092 121.572 169.93 122.41 170.977 122.41C172.024 122.41 172.862 121.572 172.862 120.525Z" fill="white"/>
<path d="M170.977 131.815C172.018 131.815 172.862 130.971 172.862 129.93C172.862 128.888 172.018 128.044 170.977 128.044C169.936 128.044 169.092 128.888 169.092 129.93C169.092 130.971 169.936 131.815 170.977 131.815Z" fill="white"/>
<path d="M170.977 143.479C172.018 143.479 172.862 142.634 172.862 141.593C172.862 140.552 172.018 139.707 170.977 139.707C169.936 139.707 169.092 140.552 169.092 141.593C169.092 142.634 169.936 143.479 170.977 143.479Z" fill="white"/>
<path d="M170.977 154.234C172.018 154.234 172.862 153.39 172.862 152.348C172.862 151.307 172.018 150.463 170.977 150.463C169.936 150.463 169.092 151.307 169.092 152.348C169.092 153.39 169.936 154.234 170.977 154.234Z" fill="white"/>
<path d="M180.171 120.525C180.171 119.477 179.333 118.639 178.286 118.639C177.238 118.639 176.4 119.477 176.4 120.525C176.4 121.572 177.238 122.41 178.286 122.41C179.333 122.41 180.171 121.572 180.171 120.525Z" fill="white"/>
<path d="M180.171 129.93C180.171 128.882 179.333 128.044 178.286 128.044C177.238 128.044 176.4 128.882 176.4 129.93C176.4 130.977 177.238 131.815 178.286 131.815C179.333 131.839 180.171 130.977 180.171 129.93Z" fill="white"/>
<path d="M180.171 141.593C180.171 140.545 179.333 139.707 178.286 139.707C177.238 139.707 176.4 140.545 176.4 141.593C176.4 142.641 177.238 143.479 178.286 143.479C179.333 143.502 180.171 142.641 180.171 141.593Z" fill="white"/>
<path d="M180.171 152.348C180.171 151.301 179.333 150.463 178.286 150.463C177.238 150.463 176.4 151.301 176.4 152.348C176.4 153.396 177.238 154.234 178.286 154.234C179.333 154.234 180.171 153.396 180.171 152.348Z" fill="white"/>
<path d="M187.386 120.525C187.386 119.477 186.548 118.639 185.5 118.639C184.453 118.639 183.615 119.477 183.615 120.525C183.615 121.572 184.453 122.41 185.5 122.41C186.548 122.41 187.386 121.572 187.386 120.525Z" fill="white"/>
<path d="M185.5 131.815C186.542 131.815 187.386 130.971 187.386 129.93C187.386 128.888 186.542 128.044 185.5 128.044C184.459 128.044 183.615 128.888 183.615 129.93C183.615 130.971 184.459 131.815 185.5 131.815Z" fill="white"/>
<path d="M185.5 143.479C186.542 143.479 187.386 142.634 187.386 141.593C187.386 140.552 186.542 139.707 185.5 139.707C184.459 139.707 183.615 140.552 183.615 141.593C183.615 142.634 184.459 143.479 185.5 143.479Z" fill="white"/>
<path d="M185.5 154.234C186.542 154.234 187.386 153.39 187.386 152.348C187.386 151.307 186.542 150.463 185.5 150.463C184.459 150.463 183.615 151.307 183.615 152.348C183.615 153.39 184.459 154.234 185.5 154.234Z" fill="white"/>
<path d="M216.014 125.018C216.014 121.595 213.244 118.825 209.823 118.825C206.402 118.825 203.632 121.595 203.632 125.018C203.632 128.44 206.402 131.21 209.823 131.21C213.244 131.21 216.014 128.44 216.014 125.018Z" fill="#FA7267"/>
<path d="M261.525 184.635L259.011 185.485L268.379 213.209L270.892 212.359L261.525 184.635Z" fill="#0DA1E7"/>
<path d="M117.933 230.197L113.837 228.474C113.767 228.451 113.674 228.474 113.651 228.544L107.32 243.536C107.296 243.606 107.32 243.699 107.39 243.723L111.486 245.445C111.556 245.469 111.649 245.445 111.672 245.375L117.98 230.383C118.05 230.313 118.003 230.22 117.933 230.197Z" fill="#060633"/>
<path d="M123.403 232.199L118.841 231.524C118.748 231.5 118.678 231.57 118.678 231.663L116.002 249.892C115.978 249.985 116.048 250.055 116.141 250.055L120.703 250.73C120.796 250.753 120.866 250.683 120.866 250.59L123.543 232.362C123.543 232.292 123.496 232.199 123.403 232.199Z" fill="#060633"/>
<path d="M134.11 227.147L129.571 227.985C129.478 228.008 129.431 228.078 129.455 228.171L132.783 246.283C132.806 246.376 132.876 246.423 132.969 246.4L137.508 245.562C137.601 245.538 137.647 245.468 137.624 245.375L134.296 227.264C134.273 227.17 134.203 227.124 134.11 227.147Z" fill="#060633"/>
<path d="M132.41 218.487L130.362 222.608C130.315 222.677 130.362 222.771 130.432 222.817L146.934 231.012C147.004 231.058 147.097 231.012 147.143 230.942L149.191 226.821C149.238 226.751 149.191 226.658 149.122 226.612L132.62 218.417C132.55 218.394 132.457 218.417 132.41 218.487Z" fill="#060633"/>
<path d="M129.291 231.663L124.683 231.594C124.59 231.594 124.52 231.663 124.52 231.733L124.217 252.08C124.217 252.173 124.287 252.243 124.357 252.243L128.965 252.313C129.058 252.313 129.128 252.243 129.128 252.173L129.431 231.826C129.454 231.733 129.384 231.663 129.291 231.663Z" fill="#060633"/>
<path d="M138.578 180.191L106.552 179.702C106.366 179.702 106.203 179.865 106.203 180.052L105.365 235.528C105.365 236.087 105.807 236.552 106.366 236.552L137.065 237.018C137.624 237.018 138.089 236.576 138.089 236.017L138.927 180.541C138.927 180.354 138.764 180.191 138.578 180.191Z" fill="#CDEEFE"/>
<path d="M132.582 188.825L129.935 188.633L127.818 217.82L130.465 218.012L132.582 188.825Z" fill="#0DA1E7"/>
</svg>
