<svg width="210" height="206" viewBox="0 0 210 206" fill="none" xmlns="http://www.w3.org/2000/svg">
<path d="M215.602 162.244C215.628 161.945 215.57 161.663 215.544 161.366C215.516 160.981 215.492 160.609 215.383 160.245C215.354 160.158 215.3 160.082 215.265 159.997C214.82 158.776 213.878 157.824 212.431 157.41C212.34 157.375 212.295 157.308 212.2 157.275C195.226 151.496 177.316 146.32 159 141.762C164.069 122.256 168.91 102.663 173.327 83.0577C187.842 85.8568 202.122 89.6541 214.684 96.5626C218.231 98.5136 222.554 94.5192 220.335 90.8957C213.269 79.3539 193.491 74.9878 175.658 72.4567C178.456 59.6544 181.132 46.8586 183.584 34.1082C184.679 28.4132 176.703 26.3002 174.883 31.823C170.656 44.6505 166.864 57.7048 163.293 70.8622C158.731 70.3083 154.612 69.7995 151.278 69.2136C132.25 65.8734 113.538 61.3697 94.6829 57.2393C97.0536 47.3904 98.0562 37.8174 94.8806 31.3256C93.9108 29.3439 92.2264 28.949 90.6813 29.4378C91.4418 23.6368 89.1258 17.774 84.0301 13.8581C77.8472 9.10631 66.9124 11.4603 62.6011 17.9107C53.7019 23.1379 50.5968 34.6749 58.4406 42.4506C66.6231 50.5621 79.7122 46.6416 86.4764 38.7167C85.6949 44.0977 84.789 49.4608 83.6837 54.7987C71.0911 51.927 54.3252 48.1337 43.5901 51.7926C41.6111 52.4675 40.6028 55.1119 42.3062 56.6805L43.5954 57.8684C44.0459 58.2834 44.6711 58.2744 45.123 57.8688C47.417 55.8135 70.7378 61.4464 81.591 64.1454C76.7244 84.7344 70.1135 105.087 64.1634 125.524C49.7001 124.235 35.3725 123.459 21.4398 123.473C18.2922 123.475 17.4964 128.63 20.7484 129.097C34.3426 131.049 47.8117 133.381 61.2291 135.881C55.0389 158.284 50.1219 180.85 49.664 204.003C49.543 210.142 58.697 209.89 59.1026 203.888C60.6035 181.622 65.7466 159.64 71.6436 137.836C95.8199 142.54 119.814 147.824 143.838 153.069C139.308 174.183 134.93 195.275 130.33 216.058C129.265 220.864 136.302 222.72 137.718 217.998C143.872 197.442 149.774 176.577 155.391 155.578C173.428 159.483 191.505 163.297 209.723 166.717C209.823 166.736 209.893 166.7 209.989 166.715C211.454 167.066 212.743 166.7 213.731 165.854C213.803 165.797 213.885 165.759 213.953 165.698C214.229 165.435 214.431 165.121 214.645 164.799C214.813 164.553 215.004 164.336 215.126 164.063C215.257 163.775 215.304 163.467 215.386 163.161C215.462 162.85 215.574 162.56 215.602 162.244ZM80.9431 31.5694C77.8653 37.1219 70.2448 40.3736 64.7106 36.7004C60.6121 33.9807 61.6245 29.9411 63.8332 26.5849C64.2844 26.6479 64.7444 26.6555 65.1804 26.4745C69.536 24.6629 73.1166 18.1361 78.5184 20.9207C82.529 22.9876 82.9409 27.9642 80.9431 31.5694ZM74.7252 126.569C78.2139 114.098 81.7901 101.677 84.9368 89.3002C86.393 83.5709 89.4394 75.3354 92.0963 66.6171C107.332 69.9701 122.34 74.3071 137.718 77.0522C145.149 78.3787 152.861 79.536 160.621 80.8019C155.63 99.9857 151.211 119.413 146.955 138.854C123.155 133.392 98.8071 129.188 74.7252 126.569Z" fill="#CDEEFE"/>
</svg>
