<svg width="50" height="50" viewBox="0 0 50 50" fill="none" xmlns="http://www.w3.org/2000/svg">
<path fill-rule="evenodd" clip-rule="evenodd" d="M24.9927 0C11.2115 0 2.84312e-05 11.2135 2.84312e-05 25C-0.00793993 30.2657 1.65924 35.3974 4.76045 39.6531L1.64588 48.9416L11.2542 45.8708C15.3311 48.5732 20.1161 50.0098 25.0073 49.9999C38.7886 49.9999 50 38.7854 50 25C50 11.2146 38.7896 0 25.0073 0H24.9927ZM18.0136 12.6979C17.5282 11.5375 17.1615 11.4937 16.4271 11.4635C16.1483 11.4459 15.869 11.4365 15.5896 11.4354C14.6334 11.4354 13.6344 11.7146 13.0323 12.3313C12.2979 13.0812 10.4761 14.8291 10.4761 18.4156C10.4761 22.002 13.0907 25.4708 13.4438 25.9562C13.8115 26.4406 18.5428 33.9062 25.8886 36.9489C31.6334 39.3302 33.3386 39.1093 34.6459 38.8302C36.5563 38.4187 38.9511 37.0072 39.5531 35.3031C40.1563 33.5979 40.1562 32.1427 39.9802 31.8343C39.8031 31.526 39.3177 31.35 38.5844 30.9823C37.849 30.6146 34.2781 28.851 33.6021 28.6156C32.9417 28.3656 32.3105 28.4541 31.8105 29.1594C31.1052 30.1448 30.4146 31.1437 29.8562 31.7458C29.4156 32.2166 28.6948 32.276 28.0927 32.025C27.2844 31.6875 25.0219 30.8937 22.2302 28.4104C20.0698 26.4843 18.6011 24.0895 18.175 23.3687C17.7479 22.6343 18.1312 22.2083 18.4687 21.8114C18.8365 21.3552 19.1885 21.0323 19.5563 20.6062C19.9229 20.1792 20.1292 19.9594 20.3646 19.4604C20.6146 18.975 20.4375 18.475 20.2604 18.1062C20.0854 17.7396 18.6157 14.1531 18.0136 12.699V12.6979Z" fill="#060633"/>
</svg>
