<svg width="45" height="45" viewBox="0 0 45 45" fill="none" xmlns="http://www.w3.org/2000/svg">
<path d="M36.9139 39.3704C36.7351 36.2138 35.3155 34.91 33.4091 32.5883C31.4461 30.1974 29.8465 27.4275 28.2293 24.7503C30.4593 23.344 32.6879 21.9386 34.9381 20.5671C37.4392 19.043 40.4512 17.841 42.0473 15.291C43.8763 12.3674 41.4771 8.02845 37.9473 8.26998C33.0682 8.60439 27.565 13.3364 23.2754 16.6216C20.6347 12.3008 17.7921 8.00738 14.1456 4.76997C11.3639 2.30105 6.63463 5.49233 8.80649 8.88596C11.4442 13.0067 13.9435 17.1714 16.3871 21.3759C12.2368 24.1564 7.97164 27.2318 5.37711 31.0823C3.0833 34.4864 7.53717 38.4874 10.8466 36.5369C14.353 34.4705 17.6882 32.0251 21.0387 29.6165C23.6403 34.6507 26.924 43.2228 33.1009 43.2768C35.1335 43.2944 37.0304 41.4405 36.9139 39.3704Z" fill="#CDEEFE"/>
</svg>
