<svg width="55" height="38" viewBox="0 0 55 38" fill="none" xmlns="http://www.w3.org/2000/svg">
<path d="M46.202 21.2086C46.7448 21.1858 47.2894 21.1001 47.7683 20.8375C49.7041 19.7707 51.1349 19.1953 52.3199 17.2405C54.3551 13.8852 51.6306 10.0089 48.0082 9.85696C43.8672 9.68316 41.3987 12.7265 38.384 15.2233C35.7184 17.4301 33.1354 19.7322 30.5272 22.005C26.3116 16.9071 21.8595 11.8862 16.653 7.90956C13.1775 5.25386 9.41215 10.8069 12.1552 13.7549C16.3134 18.2218 20.1566 22.9524 23.9016 27.7637C17.2749 33.6648 9.4728 40.4927 6.0737 48.6695C4.57368 52.2764 9.19862 57.0833 12.1112 53.3152C16.9063 47.1097 22.288 41.6675 28.115 36.4226C28.5551 36.0275 29.0296 35.6697 29.4739 35.2802C32.327 39.7361 35.295 45.0352 39.9276 46.6959C41.6778 47.3232 44.2784 45.9329 44.5193 44.0155C45.2104 38.4873 40.4447 33.5653 36.5948 29.287C37.6711 28.4055 38.706 27.4747 39.7873 26.6003C41.0044 25.6097 44.1384 22.9258 46.202 21.2086Z" fill="#CDEEFE"/>
</svg>
